<svg width="71" height="100" viewBox="0 0 71 100" fill="none" xmlns="http://www.w3.org/2000/svg">
<path d="M70.807 20.869V96.5981C70.807 98.4358 69.3167 99.9261 67.479 99.9261H3.32803C1.49034 99.9261 0 98.4358 0 96.5981V3.54544C0 1.70775 1.49034 0.217407 3.32803 0.217407H50.1564L70.807 20.869Z" fill="#FE9ECC"/>
<path d="M70.8071 20.869H53.4835C51.6459 20.869 50.1555 19.3786 50.1555 17.5409V0.217407L70.8071 20.869Z" fill="#FFD9E8"/>
<path d="M59.2064 70.6955H39.4993C38.6784 70.6955 38.0133 70.0304 38.0133 69.2095V64.5686C38.0133 63.7477 38.6784 63.0827 39.4993 63.0827H59.2064C60.0273 63.0827 60.6924 63.7477 60.6924 64.5686V69.2095C60.6915 70.0295 60.0264 70.6955 59.2064 70.6955Z" fill="#FFD9E8"/>
<path d="M52.1194 82.1177H39.4993C38.6784 82.1177 38.0133 81.4525 38.0133 80.6316V75.9909C38.0133 75.17 38.6784 74.5049 39.4993 74.5049H52.1194C52.9403 74.5049 53.6054 75.17 53.6054 75.9909V80.6316C53.6054 81.4525 52.9403 82.1177 52.1194 82.1177Z" fill="#FFD9E8"/>
<path d="M35.2416 14.2503H9.10571C8.28481 14.2503 7.61972 13.5852 7.61972 12.7643C7.61972 11.9434 8.28481 11.2783 9.10571 11.2783H35.2416C36.0625 11.2783 36.7276 11.9434 36.7276 12.7643C36.7276 13.5852 36.0625 14.2503 35.2416 14.2503Z" fill="#FFD9E8"/>
<path d="M22.2838 20.8689H9.10571C8.2848 20.8689 7.61972 20.2038 7.61972 19.3829C7.61972 18.562 8.2848 17.897 9.10571 17.897H22.2838C23.1047 17.897 23.7698 18.562 23.7698 19.3829C23.7698 20.2038 23.1038 20.8689 22.2838 20.8689Z" fill="#FFD9E8"/>
<path d="M23.0638 72.3965C24.5193 71.4903 25.49 69.8763 25.49 68.0395C25.49 65.2103 23.1883 62.9086 20.3591 62.9086C17.5299 62.9086 15.2282 65.2103 15.2282 68.0395C15.2282 69.8763 16.1988 71.4903 17.6543 72.3965C13.6229 73.509 10.6675 77.0399 10.6675 81.215C10.6675 81.8104 11.1498 82.2918 11.7443 82.2918C12.3389 82.2918 12.8212 81.8104 12.8212 81.215C12.8212 77.3376 16.2023 74.1837 20.3591 74.1837C24.5158 74.1837 27.897 77.3376 27.897 81.215C27.897 81.8104 28.3792 82.2918 28.9738 82.2918C29.5684 82.2918 30.0507 81.8104 30.0507 81.215C30.0515 77.0399 27.0952 73.509 23.0638 72.3965ZM20.3591 65.0623C22.0009 65.0623 23.3363 66.3977 23.3363 68.0395C23.3363 69.6813 22.0009 71.0166 20.3591 71.0166C18.7173 71.0166 17.3819 69.6813 17.3819 68.0395C17.3827 66.3977 18.7181 65.0623 20.3591 65.0623Z" fill="#FFD9E8"/>
</svg>
