<svg width="109" height="64" viewBox="0 0 109 64" fill="none" xmlns="http://www.w3.org/2000/svg">
<path d="M103.307 63.2542H5.47567C2.72289 63.2542 0.491486 61.0228 0.491486 58.27V5.36053C0.491486 2.60775 2.72289 0.376343 5.47567 0.376343H103.307C106.059 0.376343 108.291 2.60775 108.291 5.36053V58.27C108.291 61.0228 106.059 63.2542 103.307 63.2542Z" fill="#6277D7"/>
<path d="M96.265 19.9287H60.3812C59.7909 19.9287 59.3127 19.4505 59.3127 18.8603C59.3127 18.27 59.7909 17.7918 60.3812 17.7918H96.265C96.8553 17.7918 97.3335 18.27 97.3335 18.8603C97.3329 19.4505 96.8546 19.9287 96.265 19.9287Z" fill="#D2DCFF"/>
<path d="M79.339 25.7554H60.3812C59.7909 25.7554 59.3127 25.2772 59.3127 24.6869C59.3127 24.0967 59.7909 23.6185 60.3812 23.6185H79.339C79.9292 23.6185 80.4074 24.0967 80.4074 24.6869C80.4074 25.2772 79.9286 25.7554 79.339 25.7554Z" fill="#D2DCFF"/>
<path d="M72.591 47.2825H60.3812C59.7909 47.2825 59.3127 46.8044 59.3127 46.2142C59.3127 45.6239 59.7909 45.1457 60.3812 45.1457H72.591C73.1812 45.1457 73.6594 45.6239 73.6594 46.2142C73.6588 46.8044 73.1806 47.2825 72.591 47.2825Z" fill="#89AEFF"/>
<path d="M22.9662 37.1026V45.8047C22.9662 46.3949 22.4881 46.8731 21.8978 46.8731H17.5809C16.9906 46.8731 16.5124 46.3949 16.5124 45.8047V37.1026C16.5124 36.5123 16.9906 36.0341 17.5809 36.0341H21.8978C22.4881 36.0341 22.9662 36.5123 22.9662 37.1026Z" fill="#D2DCFF"/>
<path d="M34.6979 28.3016V45.8041C34.6979 46.3943 34.2197 46.8726 33.6294 46.8726H29.3125C28.7222 46.8726 28.244 46.3943 28.244 45.8041V28.3016C28.244 27.7113 28.7222 27.2331 29.3125 27.2331H33.6294C34.219 27.2331 34.6979 27.7119 34.6979 28.3016Z" fill="#D2DCFF"/>
<path d="M46.4289 20.9971V45.8047C46.4289 46.395 45.9506 46.8732 45.3604 46.8732H41.0435C40.4532 46.8732 39.975 46.395 39.975 45.8047V20.9971C39.975 20.4069 40.4532 19.9287 41.0435 19.9287H45.3604C45.9506 19.9287 46.4289 20.4069 46.4289 20.9971Z" fill="#D2DCFF"/>
</svg>
