<svg width="169" height="149" viewBox="0 0 169 149" fill="none" xmlns="http://www.w3.org/2000/svg">
<path d="M54.1913 118.116L50.5662 148.171H49.3774L53.0025 118.116H54.1913Z" fill="#D2DCFF"/>
<path d="M38.1707 118.115L37.763 121.495L34.5456 148.171H33.3564L36.5901 121.364L36.9816 118.115H38.1707Z" fill="#D2DCFF"/>
<path d="M54.1913 148.171H53.0025L52.501 144.014L51.9068 139.086L49.9511 122.874L49.3774 118.115H50.5665L51.1569 123.01L52.501 134.156L53.0956 139.085L54.1913 148.171Z" fill="#D2DCFF"/>
<path d="M70.212 148.171H69.0229L66.2093 124.842L65.3977 118.115H66.5869L67.414 124.972L70.212 148.171Z" fill="#D2DCFF"/>
<path d="M38.2288 98.0239H37.0397V116.204H38.2288V98.0239Z" fill="#D2DCFF"/>
<path d="M54.3854 98.0239H53.1966V116.204H54.3854V98.0239Z" fill="#D2DCFF"/>
<path d="M67.0859 116.204H50.7496C51.2773 116.204 51.7051 116.632 51.7051 117.16C51.7051 117.687 51.2773 118.115 50.7496 118.115H67.0859C67.6136 118.115 68.0415 117.687 68.0415 117.16C68.0415 116.632 67.6136 116.204 67.0859 116.204Z" fill="#D2DCFF"/>
<path d="M51.7052 117.16C51.7052 116.632 51.2773 116.204 50.7496 116.204H38.2539H36.6443C36.1166 116.204 35.6888 116.632 35.6888 117.16C35.6888 117.687 36.1166 118.115 36.6443 118.115H38.2539H50.7496C51.2773 118.115 51.7052 117.687 51.7052 117.16Z" fill="#86A2E2"/>
<path d="M55.3572 84.3417H36.0685C35.333 84.3417 34.7367 84.9381 34.7367 85.6732V96.6919C34.7367 97.4274 35.333 98.0238 36.0685 98.0238H55.3572C56.0926 98.0238 56.6889 97.4274 56.6889 96.6919V85.6732C56.6886 84.9377 56.0926 84.3417 55.3572 84.3417Z" fill="#D2DCFF"/>
<path d="M38.1707 118.115L37.763 121.495C37.3333 121.447 36.9409 121.403 36.5901 121.364L36.9819 118.115H38.1707Z" fill="#AEC3FF"/>
<path d="M50.5665 118.115L51.1569 123.01C50.7531 122.965 50.351 122.919 49.9514 122.874L49.3774 118.115H50.5665Z" fill="#AEC3FF"/>
<path d="M67.414 124.972C67.0303 124.931 66.6279 124.888 66.2093 124.842H66.2089L65.3977 118.115H66.5869L67.414 124.972Z" fill="#AEC3FF"/>
<path d="M37.0397 98.0239H38.2288V100.535L37.0397 100.403V98.0239Z" fill="#AEC3FF"/>
<path d="M54.3854 98.0239V102.323L53.1966 102.192V98.0239H54.3854Z" fill="#AEC3FF"/>
<path d="M60.8385 67.6196C56.2058 68.3919 50.4334 66.6676 49.7097 65.5698C48.0325 68.1257 47.1803 68.0458 47.1803 68.0458V69.9626L46.8016 69.5839C46.6848 69.3195 46.4993 69.0576 46.2219 69.0576C44.6965 69.0576 44.59 73.3004 47.1573 73.5456C47.2079 73.712 47.2603 73.8673 47.3137 74.0078V80.7987H53.1044V78.1278C53.4938 78.2347 53.8668 78.2958 54.2094 78.2958C56.4925 78.2958 60.3831 74.9386 60.824 69.5835C60.8502 68.5731 60.8385 67.6196 60.8385 67.6196Z" fill="#FCBEB7"/>
<path d="M53.8097 60.3513C49.8162 60.3513 49.0174 62.4812 49.0174 62.4812C47.3133 62.4812 44.7042 65.5963 46.2752 69.0572L46.2834 69.0654L47.1805 69.9626V68.0458C47.1805 68.0458 48.0324 68.1257 49.71 65.5697C50.4337 66.6676 56.2065 68.3919 60.8388 67.6196C60.8388 67.6196 60.8509 68.5731 60.8243 69.5835C60.8243 69.5846 60.8243 69.5857 60.8243 69.5867C62.5543 64.5813 59.0813 60.3513 53.8097 60.3513Z" fill="#311643"/>
<path d="M52.0926 71.0456C51.916 71.0456 51.773 70.9026 51.773 70.726V70.1293C51.773 69.9527 51.916 69.8097 52.0926 69.8097C52.2692 69.8097 52.4122 69.9527 52.4122 70.1293V70.726C52.4119 70.9026 52.2689 71.0456 52.0926 71.0456Z" fill="#311643"/>
<path d="M58.0164 71.0456C57.8398 71.0456 57.6968 70.9026 57.6968 70.726V70.1293C57.6968 69.9527 57.8398 69.8097 58.0164 69.8097C58.193 69.8097 58.336 69.9527 58.336 70.1293V70.726C58.3356 70.9026 58.1927 71.0456 58.0164 71.0456Z" fill="#311643"/>
<path d="M54.4416 74.7748C53.8714 74.7748 53.4832 74.5603 53.2478 74.365C52.9512 74.1186 52.8281 73.85 52.8228 73.8387C52.7895 73.7651 52.8224 73.6784 52.896 73.6451C52.9696 73.6119 53.056 73.6448 53.0892 73.718C53.1059 73.7541 53.5108 74.6035 54.6875 74.4673C54.7679 74.4581 54.8404 74.5154 54.8496 74.5961C54.8588 74.6764 54.8015 74.749 54.7212 74.7582C54.6238 74.7699 54.5304 74.7748 54.4416 74.7748Z" fill="#311643"/>
<path d="M49.9712 73.6946C50.8438 73.6946 51.5511 72.9873 51.5511 72.1148C51.5511 71.2422 50.8438 70.5349 49.9712 70.5349C49.0987 70.5349 48.3913 71.2422 48.3913 72.1148C48.3913 72.9873 49.0987 73.6946 49.9712 73.6946Z" fill="#F49795"/>
<path d="M60.6595 70.8032C60.4592 71.8642 60.1237 72.8315 59.6993 73.6925C58.8637 73.6511 58.1994 72.9606 58.1994 72.1148C58.1994 71.2424 58.9066 70.5352 59.779 70.5352C60.1049 70.5352 60.4079 70.634 60.6595 70.8032Z" fill="#F49795"/>
<path d="M58.0165 67.3104C56.8631 67.3104 55.9107 68.1874 55.7907 69.3093C55.1636 69.0142 54.6101 69.1737 54.3181 69.3082C54.1978 68.1866 53.2457 67.3104 52.0927 67.3104C50.8582 67.3104 49.8542 68.3145 49.8542 69.5489C49.8542 70.7834 50.8586 71.7874 52.0927 71.7874C53.2992 71.7874 54.2855 70.8276 54.3291 69.6317C54.5145 69.5266 55.1101 69.2545 55.7798 69.6335C55.8243 70.8287 56.8104 71.7874 58.0162 71.7874C59.2506 71.7874 60.2547 70.7834 60.2547 69.5489C60.255 68.3145 59.2506 67.3104 58.0165 67.3104ZM52.0927 71.4948C51.0196 71.4948 50.1469 70.622 50.1469 69.5489C50.1469 68.4758 51.0196 67.6031 52.0927 67.6031C53.1654 67.6031 54.0385 68.4758 54.0385 69.5489C54.0381 70.622 53.1654 71.4948 52.0927 71.4948ZM58.0165 71.4948C56.9434 71.4948 56.0707 70.622 56.0707 69.5489C56.0707 68.4758 56.9434 67.6031 58.0165 67.6031C59.0896 67.6031 59.9623 68.4758 59.9623 69.5489C59.9623 70.622 59.0892 71.4948 58.0165 71.4948Z" fill="white"/>
<path d="M53.1041 80.7988V78.1278C51.7946 77.7679 50.3039 76.8863 49.1834 76.0457L53.1041 80.7988Z" fill="#F9AFAB"/>
<path d="M69.557 126.457L68.348 126.292L67.2031 116.799H68.3922L69.557 126.457Z" fill="#EBEDF4"/>
<path d="M66.3459 90.1813L67.396 92.1944H61.7992L66.3459 90.1813Z" fill="#FCBEB7"/>
<path d="M55.6257 142.922V147.256C55.6257 147.761 56.0356 148.171 56.541 148.171H68.8338C68.9506 148.171 69.0455 148.076 69.0455 147.959V147.161C69.0455 146.775 68.8208 146.425 68.4704 146.265L61.3624 142.922H55.6257Z" fill="#2F3D6C"/>
<path d="M55.6257 140.456L55.6286 142.922H61.362L61.7587 140.456H55.6257Z" fill="#FCBEB7"/>
<path d="M53.0942 78.2799L60.8779 81.7958C61.9481 82.2792 62.8191 83.1169 63.3436 84.1677L66.3459 90.1814L61.7991 92.1944L62.1757 105.487H39.518L40.5072 93.0726L36.4096 93.0991V86.3064C36.4096 84.2023 37.6738 82.3047 39.6154 81.4939L47.3134 78.2796C47.3137 78.28 50.6766 80.487 53.0942 78.2799Z" fill="#89AEFF"/>
<path d="M54.7156 78.9835C53.5445 79.9303 52.0969 80.4441 50.5702 80.4441C48.9531 80.4441 47.3725 79.8149 46.1678 78.7581L45.9201 78.8615C47.1786 79.9968 48.8622 80.6785 50.5702 80.6785C52.1922 80.6785 53.7281 80.1178 54.9569 79.0883L54.7156 78.9835Z" fill="white"/>
<path d="M67.6892 142.922V147.256C67.6892 147.761 68.0991 148.171 68.6044 148.171H80.8973C81.0141 148.171 81.109 148.076 81.109 147.959V147.161C81.109 146.775 80.8842 146.425 80.5339 146.265L73.4258 142.922H67.6892Z" fill="#2F3D6C"/>
<path d="M67.6892 140.456L67.6924 142.922H73.4258L73.8222 140.456H67.6892Z" fill="#FCBEB7"/>
<path d="M51.5809 105.488V105.719C51.5763 111.542 56.295 116.264 62.1176 116.264H67.0123L67.6897 140.456H73.8227L78.3446 111.611C78.849 108.394 76.362 105.488 73.1063 105.488H51.5809Z" fill="#6277D7"/>
<path d="M78.4094 110.803C77.8814 111.575 76.9927 112.082 75.9858 112.082C74.3645 112.082 73.0504 110.768 73.0504 109.147C73.0504 107.59 74.2626 106.316 75.7943 106.218C77.376 107.15 78.4179 108.877 78.4094 110.803Z" fill="#4A5EA3"/>
<path d="M66.3451 110.689L67.0122 116.264H62.9964L66.3451 110.689Z" fill="#4A5EA3"/>
<path d="M39.5174 105.488V105.719C39.5128 111.542 44.2315 116.264 50.0541 116.264H54.9488L55.6262 140.456H61.7592L66.2811 111.611C66.7855 108.394 64.2985 105.488 61.0429 105.488H39.5174Z" fill="#6277D7"/>
<path d="M36.4099 93.0991L36.628 100.628C36.6871 102.663 38.3533 104.282 40.389 104.282H53.4948L54.3747 101.216L42.8144 99.311L42.7326 93.058L36.4099 93.0991Z" fill="#FCBEB7"/>
<path d="M40.2964 102.716C40.2964 103.311 40.0288 103.844 39.6073 104.2C38.2525 103.914 37.1639 102.899 36.7777 101.578C37.1306 101.09 37.7046 100.773 38.353 100.773C39.4268 100.773 40.2964 101.643 40.2964 102.716Z" fill="#F9AFAB"/>
<path d="M42.7327 93.0584L44.5076 99.5902L42.8144 99.3114L42.7327 93.0584Z" fill="#4A62D3"/>
<path d="M52.7594 100.95L50.6933 104.282H53.4945L54.3747 101.216L52.7594 100.95Z" fill="#F9AFAB"/>
<path d="M75.2801 92.1944H58.191C57.4647 92.1944 56.8263 92.6754 56.626 93.3733L53.4945 104.282H46.5649C46.2318 104.282 45.9618 104.552 45.9618 104.885C45.9618 105.218 46.2318 105.488 46.5649 105.488H53.1484H55.2418H73.6255L76.8451 94.2723C77.1442 93.2314 76.3627 92.1944 75.2801 92.1944Z" fill="#4A5EA3"/>
<path d="M66.3452 110.689C65.8281 111.525 64.903 112.082 63.8476 112.082C62.2263 112.082 60.9122 110.768 60.9122 109.147C60.9122 107.567 62.1601 106.278 63.7244 106.214C65.2785 107.128 66.313 108.807 66.3452 110.689Z" fill="#4A5EA3"/>
<path d="M66.5925 99.346C66.6373 98.8367 66.3906 98.3988 66.0417 98.3681C65.6928 98.3375 65.3736 98.7255 65.3288 99.2349C65.284 99.7443 65.5306 100.182 65.8795 100.213C66.2284 100.243 66.5477 99.8554 66.5925 99.346Z" fill="#89AEFF"/>
<path d="M39.8476 84.2586C39.8476 85.2078 39.0778 85.9776 38.1286 85.9776C37.4438 85.9776 36.8531 85.5773 36.5767 84.9983C36.8195 84.06 37.3195 83.2103 38.0139 82.5439C38.0518 82.5411 38.09 82.54 38.1286 82.54C39.0778 82.5397 39.8476 83.3094 39.8476 84.2586Z" fill="#4A62D3"/>
<path d="M63.2374 83.9663C62.9635 84.1507 62.6337 84.2583 62.2787 84.2583C61.3295 84.2583 60.5601 83.4885 60.5601 82.5393C60.5601 82.2512 60.6309 81.9791 60.7565 81.7409L60.8779 81.7958C61.8788 82.2477 62.7055 83.0096 63.2374 83.9663Z" fill="#4A62D3"/>
<path d="M100.877 43.8812L100.819 54.1037L106.03 54.1334L110.823 54.1607L111.154 54.1625L117.644 54.1993C117.644 54.1993 117.689 46.3494 117.715 41.7868C117.743 36.8783 113.798 36.0024 113.798 36.0024C113.798 36.0024 112.375 33.6882 108.196 33.6644C103.167 33.6358 99.7965 36.6971 99.7749 40.4993C99.7653 42.2455 100.469 43.3737 100.877 43.8812ZM100.972 42.1853C101.609 42.0455 103.405 40.4805 103.415 38.8652C104.801 41.188 109.059 44.5434 115.43 42.5466V42.547C115.45 42.5441 115.47 42.5424 115.49 42.5427C117.003 42.5512 117.085 46.7596 114.537 46.9883C114.499 47.1114 114.46 47.2286 114.42 47.3383L114.381 54.1809L108.638 54.148L108.653 51.4883C108.252 51.5987 107.868 51.6617 107.517 51.6596C105.141 51.6465 101.033 47.9583 100.972 42.1853Z" fill="#311643"/>
<path d="M108.651 51.8549L108.653 51.4886C108.252 51.599 107.868 51.662 107.517 51.6598C105.141 51.6464 101.033 47.9583 100.972 42.1852C101.608 42.0454 103.405 40.4804 103.415 38.8652C104.801 41.1879 109.059 44.5433 115.43 42.5465V42.5469C115.45 42.5441 115.47 42.5423 115.49 42.5427C117.003 42.5511 117.085 46.7596 114.537 46.9882C114.499 47.1114 114.46 47.2285 114.42 47.3382L114.394 51.9413L118.88 54.0871L118.848 59.6386L103.901 59.5532L103.933 53.9493L108.651 51.8549Z" fill="#FCBEB7"/>
<path d="M103.901 59.5531L103.933 53.9492L108.651 51.8548L108.653 51.4885C109.986 51.1204 111.504 50.2197 112.619 49.3774L103.901 59.5531Z" fill="#F9AFAB"/>
<path d="M111.754 47.1205C112.62 47.1205 113.321 46.419 113.321 45.5537C113.321 44.6884 112.62 43.9869 111.754 43.9869C110.889 43.9869 110.187 44.6884 110.187 45.5537C110.187 46.419 110.889 47.1205 111.754 47.1205Z" fill="#F49795"/>
<path d="M101.162 44.1927C101.354 45.2459 101.682 46.2072 102.098 47.0636C102.926 47.0275 103.589 46.3462 103.594 45.5074C103.599 44.6421 102.902 43.9368 102.036 43.9318C101.714 43.9297 101.412 44.026 101.162 44.1927Z" fill="#F49795"/>
<path d="M101.599 42.9511C101.592 44.1753 102.582 45.1769 103.806 45.184C105.002 45.1907 105.985 44.2454 106.037 43.0605C106.707 42.6853 107.292 42.9588 107.475 43.0661C107.512 44.2528 108.484 45.2105 109.681 45.2172C110.905 45.2243 111.907 44.234 111.914 43.0098C111.921 41.7856 110.931 40.784 109.707 40.777C108.563 40.7706 107.614 41.6341 107.488 42.7458C107.199 42.6109 106.651 42.4495 106.028 42.7387C105.915 41.6253 104.976 40.7501 103.832 40.7437C102.608 40.7366 101.606 41.7269 101.599 42.9511ZM107.764 42.9862C107.77 41.9223 108.641 41.0615 109.705 41.0675C110.769 41.0736 111.63 41.9442 111.624 43.008C111.618 44.0719 110.747 44.9327 109.683 44.9266C108.618 44.9206 107.758 44.05 107.764 42.9862ZM101.889 42.9525C101.895 41.8882 102.766 41.0279 103.83 41.0339C104.895 41.0399 105.755 41.9105 105.749 42.9744C105.743 44.0386 104.872 44.899 103.808 44.893C102.744 44.8874 101.883 44.0167 101.889 42.9525Z" fill="white"/>
<path d="M103.808 44.5543C103.983 44.5554 104.126 44.4141 104.127 44.2393L104.131 43.6476C104.132 43.4728 103.99 43.3302 103.816 43.3291C103.641 43.328 103.498 43.4692 103.497 43.6441L103.493 44.2362C103.492 44.411 103.634 44.5536 103.808 44.5543Z" fill="#311643"/>
<path d="M109.589 44.5876C109.763 44.5887 109.906 44.4475 109.907 44.2727L109.911 43.6805C109.912 43.5057 109.771 43.363 109.596 43.3619C109.421 43.3609 109.278 43.5021 109.277 43.677L109.274 44.2687C109.273 44.4439 109.413 44.5865 109.589 44.5876Z" fill="#311643"/>
<path d="M107.306 48.1664C107.872 48.1696 108.258 47.9589 108.493 47.7668C108.788 47.5243 108.912 47.2585 108.917 47.2472C108.95 47.1743 108.918 47.088 108.845 47.0547C108.772 47.0214 108.686 47.0533 108.653 47.1258C108.636 47.1616 108.23 48.0015 107.064 47.8599C106.984 47.8503 106.912 47.9069 106.902 47.9866C106.892 48.0662 106.949 48.1384 107.029 48.1483C107.126 48.1604 107.218 48.166 107.306 48.1664Z" fill="#311643"/>
<path d="M97.2827 140.276L96.6746 142.742L90.1824 144.741L91.1401 140.241L97.2827 140.276Z" fill="#FCBEB7"/>
<path d="M119.117 140.4L118.923 143.45L119.325 143.601L119.585 144.909L113.122 142.836L112.974 140.365L119.117 140.4Z" fill="#FCBEB7"/>
<path d="M85.1787 145.671L90.4598 143.437L90.1824 144.741L96.6746 142.742L96.6639 144.599C96.6604 145.252 96.3153 145.842 95.7767 146.172L95.2104 147.762C95.1616 147.899 95.031 147.991 94.8852 147.99C94.6955 147.989 94.5429 147.834 94.544 147.645L94.55 146.608L90.113 147.963L85.6324 147.937C84.9809 147.934 84.4556 147.403 84.4595 146.751C84.4613 146.279 84.7444 145.855 85.1787 145.671Z" fill="#2F3D6C"/>
<path d="M113.105 144.675L113.121 142.818L119.584 144.909L119.325 143.602L124.574 145.912C125.005 146.102 125.283 146.531 125.278 147.002C125.273 147.653 124.74 148.177 124.088 148.171L119.608 148.132L115.036 146.665L115.026 147.75C115.025 147.94 114.87 148.092 114.68 148.09C114.535 148.089 114.405 147.995 114.358 147.857L113.764 146.109C113.351 145.76 113.1 145.24 113.105 144.675Z" fill="#2F3D6C"/>
<path d="M118.491 78.2767L120.824 88.4125C121.497 91.3397 121.752 94.3473 121.581 97.346L119.117 140.4L112.974 140.365L110.606 95.6549L97.2825 140.276L91.1396 140.241L102.31 78.1846L118.491 78.2767Z" fill="#6277D7"/>
<path d="M110.485 56.8528C109.394 56.8465 108.528 55.7914 107.946 54.724L114.166 54.7594C113.211 55.8148 111.906 56.8606 110.485 56.8528Z" fill="white"/>
<path d="M99.7601 57.6385C100.54 56.1001 101.829 54.8787 103.407 54.1818L107.107 52.5471C107.106 52.7205 107.402 53.7274 107.946 54.724C108.528 55.7914 109.394 56.8465 110.485 56.8529C111.906 56.861 113.211 55.8152 114.166 54.7594C115.134 53.6881 115.742 52.6073 115.742 52.6073L120.014 54.6161C121.762 55.4382 123.043 57.0082 123.499 58.8857L125.945 68.966C126.344 70.6095 125.864 72.3426 124.676 73.547C122.709 72.8441 119.017 71.3828 119.017 71.3828L118.491 78.2771L102.31 78.185L98.3914 60.3364L99.7601 57.6385Z" fill="#FE9ECC"/>
<path d="M110.317 58.3651C111.216 58.37 112.133 58.1018 113.042 57.5671C113.764 57.1427 114.482 56.5502 115.177 55.8063C116.357 54.5435 117.078 53.2521 117.085 53.239L116.845 53.1261C116.838 53.1388 116.138 54.3906 114.98 55.63C114.302 56.3545 113.604 56.93 112.905 57.3409C112.039 57.8501 111.168 58.1057 110.318 58.1011C109.515 58.0965 108.793 57.8247 108.173 57.2927C107.671 56.8624 107.233 56.2615 106.869 55.5066C106.244 54.2095 106.078 53.0153 106.077 53.0022L105.828 53.1123C105.835 53.1675 105.988 54.2813 106.628 55.6155C107.008 56.4047 107.469 57.0358 107.999 57.4909C108.669 58.066 109.448 58.3601 110.317 58.3651Z" fill="white"/>
<path d="M100.382 112.543C102.006 112.543 103.322 111.226 103.322 109.602C103.322 107.978 102.006 106.662 100.382 106.662C98.758 106.662 97.4416 107.978 97.4416 109.602C97.4416 111.226 98.758 112.543 100.382 112.543Z" fill="#4A5EA3"/>
<path d="M115.787 112.631C117.411 112.631 118.727 111.314 118.727 109.69C118.727 108.066 117.411 106.75 115.787 106.75C114.163 106.75 112.846 108.066 112.846 109.69C112.846 111.314 114.163 112.631 115.787 112.631Z" fill="#4A5EA3"/>
<path d="M119.981 55.9227C119.975 56.9597 120.811 57.8055 121.848 57.8115C122.264 57.814 122.65 57.6806 122.963 57.4527C122.384 56.3361 121.483 55.4071 120.365 54.7948C120.126 55.108 119.983 55.4987 119.981 55.9227Z" fill="#FF78BA"/>
<path d="M108.851 80.5516L96.4021 80.0105C95.7481 79.9822 95.1843 79.5409 94.9999 78.9127L89.6594 60.7335C89.5457 60.3474 89.8459 59.9641 90.2479 59.9818L102.838 60.5293C103.408 60.554 103.899 60.9384 104.059 61.4859L109.44 79.8002C109.553 80.186 109.254 80.5693 108.851 80.5516Z" fill="#4A5EA3"/>
<path d="M95.4865 70.9432L93.2954 73.1106L92.9309 71.8698L95.4865 70.9432Z" fill="#2F3D6C"/>
<path d="M92.4807 67.5518L95.6185 67.7768C95.8503 67.7935 96.0287 67.9881 96.0248 68.2203L96.3366 68.2415C96.5394 68.2553 96.7033 68.4121 96.7263 68.6142L96.7631 68.9409H96.7645C96.9967 68.9451 97.1814 69.1369 97.1775 69.3691C97.1743 69.5393 97.0688 69.6912 96.9099 69.7534L96.2056 70.0288C96.2049 70.387 95.9955 70.7115 95.6695 70.8601L93.4791 71.8575C93.1609 72.0026 92.8081 72.0543 92.4616 72.0076C91.683 71.9021 91.0555 71.3167 90.8955 70.5477L90.7635 69.9113C90.6212 69.2258 90.8375 68.5147 91.3375 68.0249C91.6433 67.7248 92.0532 67.5553 92.4807 67.5518Z" fill="#FCBEB7"/>
<path d="M108.153 55.5328L105.981 60.7569C105.859 61.0518 105.68 61.3183 105.461 61.5342L105.078 61.9117C104.989 61.9995 104.866 61.9482 104.865 61.8233L104.863 61.2853C104.861 60.9778 104.925 60.6635 105.047 60.3687L107.219 55.1446C107.352 54.8268 107.668 54.6558 107.926 54.763C108.183 54.8703 108.285 55.215 108.153 55.5328Z" fill="#6277D7"/>
<path d="M105.319 58.6362L106.504 57.023C106.657 56.8149 106.892 56.6833 107.149 56.6614L109.123 56.494C109.391 56.4713 109.658 56.5591 109.86 56.7371L110.883 57.636C111.03 57.7659 111.156 57.9191 111.253 58.0894L112.502 60.0972L124.399 69.8217C125.573 70.7812 125.667 72.5418 124.603 73.6213C123.544 74.6947 121.794 74.6321 120.814 73.4861L110.788 61.7546L108.673 60.4372L107.105 60.4822C106.741 60.4928 106.422 60.2412 106.347 59.8848L106.261 59.7822C106.114 59.6056 106.055 59.3713 106.102 59.1458L106.194 58.7041L105.686 59.0283C105.612 59.0758 105.519 59.0842 105.437 59.0517C105.272 58.9851 105.213 58.7803 105.319 58.6362Z" fill="#FCBEB7"/>
<path d="M119.017 71.3825L114.623 66.2419L118.835 73.7661L119.017 71.3825Z" fill="#FF78BA"/>
<path d="M108.851 80.5517L101.529 82.5237L101.938 80.2512L108.851 80.5517Z" fill="#2F3D6C"/>
<path d="M100.419 56.5722C100.65 56.6699 100.903 56.7243 101.169 56.7257C102.248 56.7318 103.127 55.8626 103.133 54.7839C103.134 54.6292 103.117 54.4784 103.084 54.334C102.028 54.8617 101.116 55.6301 100.419 56.5722Z" fill="#FF78BA"/>
<path d="M122.713 73.9933C123.716 73.9933 124.529 73.18 124.529 72.1767C124.529 71.1734 123.716 70.36 122.713 70.36C121.71 70.36 120.896 71.1734 120.896 72.1767C120.896 73.18 121.71 73.9933 122.713 73.9933Z" fill="#F9AFAB"/>
<path d="M145.219 79.5823H143.287V146.239H145.219V79.5823Z" fill="#D2DCFF"/>
<path d="M158.372 148.171H130.134C129.616 148.171 129.196 147.751 129.196 147.232V147.178C129.196 146.659 129.616 146.239 130.134 146.239H158.372C158.89 146.239 159.31 146.66 159.31 147.178V147.232C159.31 147.751 158.89 148.171 158.372 148.171Z" fill="#D2DCFF"/>
<path d="M162.423 79.5823H126.083L132.371 59.578H156.135L162.423 79.5823Z" fill="#D2DCFF"/>
<path d="M145.219 79.5822V91.1474C144.566 91.369 143.919 91.5891 143.287 91.8039V79.5818H145.219V79.5822Z" fill="#AEC3FF"/>
<path d="M128.31 72.4958L160.201 72.5111L160.662 73.9805H127.843L128.31 72.4958Z" fill="#AEC3FF"/>
<path d="M166.771 142.507V141.215C166.771 140.816 166.447 140.492 166.047 140.492H136.074C134.562 140.492 133.336 141.718 133.336 143.23V145.433C133.336 146.945 134.562 148.171 136.074 148.171H166.047C166.447 148.171 166.771 147.847 166.771 147.448V146.156C166.771 145.757 166.447 145.433 166.047 145.433H137.175C136.567 145.433 136.074 144.94 136.074 144.332C136.074 143.723 136.567 143.23 137.175 143.23H166.047C166.447 143.23 166.771 142.907 166.771 142.507Z" fill="#86A2E2"/>
<path d="M166.48 119.47V118.178C166.48 117.779 166.156 117.455 165.756 117.455H135.783C134.271 117.455 133.045 118.681 133.045 120.193V122.395C133.045 123.908 134.271 125.134 135.783 125.134H165.756C166.156 125.134 166.48 124.81 166.48 124.411V123.119C166.48 122.719 166.156 122.396 165.756 122.396H136.884C136.276 122.396 135.783 121.903 135.783 121.294C135.783 120.686 136.276 120.193 136.884 120.193H165.756C166.156 120.193 166.48 119.87 166.48 119.47Z" fill="#D2DCFF"/>
<path d="M164.629 134.828V133.536C164.629 133.137 164.305 132.813 163.906 132.813H138.215C136.703 132.813 135.477 134.039 135.477 135.551V137.754C135.477 139.266 136.703 140.492 138.215 140.492H163.906C164.305 140.492 164.629 140.168 164.629 139.769V138.477C164.629 138.077 164.305 137.754 163.906 137.754H139.317C138.708 137.754 138.215 137.261 138.215 136.653C138.215 136.044 138.708 135.551 139.317 135.551H163.906C164.305 135.551 164.629 135.227 164.629 134.828Z" fill="#AEC3FF"/>
<path d="M168.944 111.999V110.708C168.944 110.308 168.62 109.985 168.221 109.985H142.531C141.018 109.985 139.792 111.211 139.792 112.723V114.925C139.792 116.438 141.018 117.664 142.531 117.664H168.221C168.621 117.664 168.944 117.34 168.944 116.94V115.649C168.944 115.249 168.62 114.925 168.221 114.925H143.632C143.024 114.925 142.531 114.432 142.531 113.824C142.531 113.215 143.024 112.723 143.632 112.723H168.221C168.62 112.723 168.944 112.399 168.944 111.999Z" fill="#AEC3FF"/>
<path d="M163.677 135.551V137.754H139.317C138.708 137.754 138.215 137.261 138.215 136.652C138.215 136.044 138.708 135.551 139.317 135.551H163.677V135.551Z" fill="#EFF1FA"/>
<path d="M161.525 143.23V145.433H137.165C136.557 145.433 136.064 144.94 136.064 144.332C136.064 143.723 136.557 143.23 137.165 143.23H161.525V143.23Z" fill="#EFF1FA"/>
<path d="M161.234 120.193V122.395H136.874C136.266 122.395 135.773 121.902 135.773 121.294C135.773 120.686 136.266 120.193 136.874 120.193H161.234V120.193Z" fill="#EFF1FA"/>
<path d="M167.992 112.723V114.925H143.632C143.023 114.925 142.53 114.432 142.53 113.824C142.53 113.215 143.023 112.723 143.632 112.723H167.992V112.723Z" fill="#EFF1FA"/>
<path d="M168.944 127.149V125.857C168.944 125.457 168.62 125.134 168.221 125.134H142.531C141.018 125.134 139.792 126.36 139.792 127.872V130.075C139.792 131.587 141.018 132.813 142.531 132.813H168.221C168.621 132.813 168.944 132.489 168.944 132.09V130.798C168.944 130.399 168.62 130.075 168.221 130.075H143.632C143.024 130.075 142.531 129.582 142.531 128.974C142.531 128.365 143.024 127.872 143.632 127.872H168.221C168.62 127.872 168.944 127.548 168.944 127.149Z" fill="#86A2E2"/>
<path d="M167.992 127.872V130.075H143.632C143.023 130.075 142.53 129.582 142.53 128.973C142.53 128.365 143.023 127.872 143.632 127.872H167.992V127.872Z" fill="#EFF1FA"/>
<path d="M155.244 106.14H159.657C159.875 106.14 160.043 106.33 160.018 106.546L159.644 109.665C159.622 109.847 159.468 109.985 159.283 109.985H155.617C155.433 109.985 155.278 109.847 155.256 109.665L154.883 106.546C154.857 106.33 155.026 106.14 155.244 106.14Z" fill="#D2DCFF"/>
<path d="M158.965 104.867V103.449L158.117 105.061V102.443L157.45 104.092L156.784 102.443V105.061L155.935 103.449V104.867L154.699 102.879L155.244 106.14H157.45H159.657L160.202 102.879L158.965 104.867Z" fill="#FE9ECC"/>
<path d="M88.1063 37.2794V51.8617C88.1063 52.3763 87.689 52.7935 87.1744 52.7935H69.6443C69.1294 52.7935 68.7125 52.3763 68.7125 51.8617V37.2794C68.7125 36.7644 69.1294 36.3475 69.6443 36.3475H87.1744C87.6887 36.3475 88.1063 36.7648 88.1063 37.2794Z" fill="#FFD9E8"/>
<path d="M88.1063 37.2794V40.0282H68.7125V37.2794C68.7125 36.7644 69.1294 36.3475 69.6443 36.3475H87.1744C87.689 36.3475 88.1063 36.7648 88.1063 37.2794Z" fill="#FE9ECC"/>
<path d="M73.9681 37.5146C73.7023 37.5146 73.4872 37.2995 73.4872 37.0337V35.6616C73.4872 35.3958 73.7027 35.1805 73.9681 35.1805C74.2339 35.1805 74.4491 35.3958 74.4491 35.6616V37.0337C74.4491 37.2995 74.2339 37.5146 73.9681 37.5146Z" fill="#FE9ECC"/>
<path d="M82.8504 37.5146C82.5846 37.5146 82.3694 37.2995 82.3694 37.0337V35.6616C82.3694 35.3958 82.5849 35.1805 82.8504 35.1805C83.1161 35.1805 83.3313 35.3958 83.3313 35.6616V37.0337C83.3313 37.2995 83.1161 37.5146 82.8504 37.5146Z" fill="#FE9ECC"/>
<path d="M74.2506 46.8196L76.3206 44.9602C76.4261 44.865 76.5316 44.757 76.6367 44.6364C76.7421 44.516 76.7949 44.3755 76.7949 44.2149C76.7949 44.0344 76.7294 43.8924 76.5992 43.7894C76.4686 43.6864 76.3157 43.6352 76.1401 43.6352C75.9292 43.6352 75.765 43.7003 75.6471 43.8309C75.5293 43.9615 75.4627 44.1221 75.4475 44.3125L74.3185 44.2297C74.3338 43.9537 74.3911 43.7141 74.4916 43.5109C74.5921 43.3078 74.7248 43.1382 74.8905 43.0027C75.0561 42.8671 75.2504 42.7655 75.4737 42.6976C75.697 42.63 75.9391 42.5961 76.1999 42.5961C76.441 42.5961 76.6668 42.63 76.8773 42.6976C77.0883 42.7655 77.2713 42.8657 77.427 42.9988C77.5823 43.1319 77.7041 43.2986 77.7922 43.4996C77.88 43.7003 77.9239 43.9339 77.9239 44.1997C77.9239 44.3702 77.9062 44.5245 77.8711 44.6625C77.8361 44.8006 77.7869 44.9258 77.7243 45.0387C77.6616 45.1516 77.5873 45.2561 77.5024 45.3513C77.4171 45.4465 77.324 45.5392 77.2238 45.6298L75.6054 47.0224H77.9688V48.0159H74.2502V46.8196H74.2506Z" fill="#FE9ECC"/>
<path d="M80.6337 46.1123C80.5736 46.1275 80.5134 46.1399 80.4533 46.1498C80.3931 46.16 80.3301 46.1646 80.265 46.1646C80.014 46.1646 79.7858 46.1197 79.5801 46.0291C79.3742 45.9388 79.1986 45.8157 79.0532 45.6603C78.9077 45.5049 78.7948 45.3205 78.7145 45.1071C78.6341 44.8937 78.5941 44.6668 78.5941 44.4258C78.5941 44.1498 78.6455 43.9003 78.7485 43.677C78.8511 43.4536 78.9919 43.2618 79.17 43.1011C79.348 42.9405 79.5575 42.8166 79.7985 42.7285C80.0395 42.6407 80.3004 42.5968 80.5814 42.5968C80.8574 42.5968 81.1169 42.6407 81.3604 42.7285C81.6038 42.8163 81.8144 42.9405 81.9928 43.1011C82.1708 43.2618 82.3113 43.4536 82.4143 43.677C82.5169 43.9003 82.5686 44.1501 82.5686 44.4258C82.5686 44.6166 82.5509 44.7907 82.5159 44.9489C82.4808 45.1071 82.4341 45.2564 82.3768 45.3966C82.3191 45.5371 82.2511 45.6713 82.1736 45.7994C82.0958 45.9275 82.0144 46.0592 81.9291 46.1947L80.7622 48.0163H79.3848L80.6337 46.1123ZM79.7228 44.4711C79.7228 44.7121 79.8017 44.9114 79.9599 45.0696C80.1181 45.2278 80.3251 45.3067 80.581 45.3067C80.8369 45.3067 81.0439 45.2278 81.2021 45.0696C81.3603 44.9114 81.4393 44.7121 81.4393 44.4711C81.4393 44.2301 81.3603 44.0309 81.2021 43.8727C81.0439 43.7145 80.8369 43.6356 80.581 43.6356C80.3251 43.6356 80.1181 43.7145 79.9599 43.8727C79.8021 44.0309 79.7228 44.2304 79.7228 44.4711Z" fill="#FE9ECC"/>
<path d="M80.6374 50.8175H76.1816C76.0733 50.8175 75.9855 50.7298 75.9855 50.6215C75.9855 50.5132 76.0733 50.4254 76.1816 50.4254H80.6374C80.7457 50.4254 80.8334 50.5132 80.8334 50.6215C80.8334 50.7298 80.7457 50.8175 80.6374 50.8175Z" fill="#FE9ECC"/>
<path d="M25.9713 131.445H9.24564V148.171H25.9713V131.445Z" fill="#D2DCFF"/>
<path d="M9.24562 131.445H0.0321503V148.171H9.24562V131.445Z" fill="#AEC3FF"/>
<path d="M9.24562 134.305H0.0321503V134.795H9.24562V134.305Z" fill="#86A2E2"/>
<path d="M25.9713 134.305H9.24564V134.795H25.9713V134.305Z" fill="#AEC3FF"/>
<path d="M20.6859 137.189H14.5313C14.4145 137.189 14.3197 137.095 14.3197 136.978V136.965C14.3197 136.849 14.4145 136.754 14.5313 136.754H20.6859C20.8027 136.754 20.8975 136.849 20.8975 136.965V136.978C20.8975 137.095 20.8027 137.189 20.6859 137.189Z" fill="#86A2E2"/>
<path d="M38.1927 130.926L29.6467 126.779L26.0537 134.185L34.5997 138.331L38.1927 130.926Z" fill="#4A5EA3"/>
<path d="M29.2336 127.819L19.8099 129.007L20.8396 137.174L30.2633 135.985L29.2336 127.819Z" fill="#4A5EA3"/>
<path d="M41.2414 131.445H24.5157V148.171H41.2414V131.445Z" fill="#D2DCFF"/>
<path d="M24.5157 131.445H15.3022V148.171H24.5157V131.445Z" fill="#AEC3FF"/>
<path d="M15.3022 131.445L10.5162 136.572H20.9114L24.5157 131.445H15.3022Z" fill="#86A2E2"/>
<path d="M41.2414 131.445L44.6574 136.638H27.9561L24.5157 131.421L41.2414 131.445Z" fill="#AEC3FF"/>
<path d="M28.064 128.038L27.3912 131.426L29.2089 127.894L28.064 128.038Z" fill="#2F3D6C"/>
<path d="M112.336 21.7944H39.1942C38.2022 21.7944 37.3981 20.9903 37.3981 19.9983V2.46181C37.3981 1.46979 38.2022 0.66571 39.1942 0.66571H112.336C113.328 0.66571 114.132 1.46979 114.132 2.46181V19.9983C114.132 20.9903 113.328 21.7944 112.336 21.7944Z" fill="#6277D7"/>
<path d="M88.7953 12.5226H45.8103C45.3006 12.5226 44.8873 12.1096 44.8873 11.5996V10.861C44.8873 10.3514 45.3006 9.93793 45.8103 9.93793H88.7953C89.305 9.93793 89.7183 10.351 89.7183 10.861V11.5996C89.7183 12.1092 89.3053 12.5226 88.7953 12.5226Z" fill="#D2DCFF"/>
<path d="M140.076 21.7944H122.54C121.548 21.7944 120.744 20.9903 120.744 19.9983V2.46181C120.744 1.46979 121.548 0.66571 122.54 0.66571H140.076C141.068 0.66571 141.872 1.46979 141.872 2.46181V19.9983C141.872 20.9903 141.068 21.7944 140.076 21.7944Z" fill="#6277D7"/>
<path d="M136.657 17.0583C136.486 17.0583 136.315 16.9928 136.185 16.8622L133.96 14.6375C131.899 16.4082 128.778 16.3193 126.825 14.3657C124.778 12.3187 124.778 8.98696 126.825 6.9385C128.873 4.89005 132.205 4.89005 134.253 6.9385C136.074 8.7601 136.275 11.597 134.857 13.6427L137.131 15.9166C137.392 16.1778 137.392 16.601 137.131 16.8622C137 16.9928 136.828 17.0583 136.657 17.0583ZM130.539 7.58015C129.752 7.58015 128.964 7.8795 128.365 8.47867C127.167 9.67738 127.167 11.6279 128.365 12.8259C128.946 13.4067 129.717 13.7262 130.539 13.7262C131.36 13.7262 132.132 13.4067 132.712 12.8259C132.734 12.8039 132.756 12.7816 132.777 12.7597C132.798 12.7257 132.822 12.6945 132.852 12.6652C132.866 12.6514 132.88 12.6379 132.896 12.6262C133.907 11.4197 133.846 9.61262 132.713 8.47833C132.113 7.8795 131.326 7.58015 130.539 7.58015Z" fill="#D2DCFF"/>
</svg>
