<svg width="153" height="149" viewBox="0 0 153 149" fill="none" xmlns="http://www.w3.org/2000/svg">
<path d="M20.7807 118.535L17.1759 148.419H15.9939L19.5984 118.535H20.7807Z" fill="#D2DCFF"/>
<path d="M4.85142 118.534L4.44603 121.895L1.24693 148.418H0.0645599L3.27949 121.764L3.66903 118.534H4.85142Z" fill="#D2DCFF"/>
<path d="M20.7807 148.418H19.5984L19.1001 144.285L18.5089 139.385L16.5647 123.266L15.9939 118.534H17.1762L17.7632 123.401L19.1001 134.484L19.6909 139.384L20.7807 148.418Z" fill="#D2DCFF"/>
<path d="M36.7101 148.418H35.5277L32.7301 125.223H32.7297L31.9232 118.534H33.1056L33.928 125.352L36.7101 148.418Z" fill="#D2DCFF"/>
<path d="M4.90914 98.5575H3.72675V116.634H4.90914V98.5575Z" fill="#D2DCFF"/>
<path d="M20.9736 98.5575H19.7916V116.634H20.9736V98.5575Z" fill="#D2DCFF"/>
<path d="M33.6017 116.634H17.3585C17.8832 116.634 18.3087 117.059 18.3087 117.584C18.3087 118.109 17.8832 118.534 17.3585 118.534H33.6017C34.1264 118.534 34.5519 118.109 34.5519 117.584C34.5519 117.059 34.1264 116.634 33.6017 116.634Z" fill="#D2DCFF"/>
<path d="M18.3087 117.584C18.3087 117.059 17.8832 116.634 17.3585 116.634H4.9341H3.33369C2.80901 116.634 2.38356 117.059 2.38356 117.584C2.38356 118.109 2.80901 118.534 3.33369 118.534H4.9341H17.3585C17.8832 118.534 18.3087 118.109 18.3087 117.584Z" fill="#86A2E2"/>
<path d="M21.9395 84.9534H2.76079C2.02955 84.9534 1.4366 85.5464 1.4366 86.2773V97.2332C1.4366 97.9645 2.02955 98.5575 2.76079 98.5575H21.9395C22.6708 98.5575 23.2637 97.9645 23.2637 97.2332V86.2773C23.2637 85.5461 22.6708 84.9534 21.9395 84.9534Z" fill="#D2DCFF"/>
<path d="M4.85142 118.534L4.44602 121.895C4.01882 121.847 3.62858 121.803 3.27985 121.764L3.66939 118.534H4.85142Z" fill="#AEC3FF"/>
<path d="M17.1762 118.534L17.7632 123.401C17.3617 123.356 16.962 123.311 16.5647 123.266L15.9939 118.534H17.1762Z" fill="#AEC3FF"/>
<path d="M33.928 125.352C33.5465 125.312 33.1464 125.269 32.7301 125.223H32.7297L31.9232 118.534H33.1056L33.928 125.352Z" fill="#AEC3FF"/>
<path d="M3.72675 98.5575H4.90914V101.054L3.72675 100.923V98.5575Z" fill="#AEC3FF"/>
<path d="M20.9736 98.5575V102.832L19.7916 102.701V98.5575H20.9736Z" fill="#AEC3FF"/>
<path d="M20.0115 19.114H3.41992V39.2921H20.0115V19.114Z" fill="#D2DCFF"/>
<path d="M19.2511 19.7516H4.18001V38.6545H19.2511V19.7516Z" fill="#D2DCFF"/>
<path d="M4.18001 33.6452L9.0844 28.7408L11.5322 31.1889L16.1371 26.584L19.2514 29.6983V38.6545H4.18001V33.6452Z" fill="#AEC3FF"/>
<path d="M8.69029 25.9914C9.41637 25.9914 10.005 25.4029 10.005 24.6768C10.005 23.9507 9.41637 23.3621 8.69029 23.3621C7.96421 23.3621 7.3756 23.9507 7.3756 24.6768C7.3756 25.4029 7.96421 25.9914 8.69029 25.9914Z" fill="#AEC3FF"/>
<path d="M110.253 58.6362H55.2512C53.7035 58.6362 52.449 57.3816 52.449 55.834V3.46791C52.449 1.92027 53.7035 0.66571 55.2512 0.66571H110.253C111.8 0.66571 113.055 1.92027 113.055 3.46791V55.834C113.055 57.3816 111.8 58.6362 110.253 58.6362Z" fill="#89AEFF"/>
<path d="M86.7635 9.05665H60.6665C60.202 9.05665 59.8255 8.68016 59.8255 8.21565C59.8255 7.75115 60.202 7.37457 60.6665 7.37457H86.7635C87.228 7.37457 87.6046 7.75115 87.6046 8.21565C87.6046 8.68016 87.228 9.05665 86.7635 9.05665Z" fill="#D2DCFF"/>
<path d="M78.374 13.2528H60.6665C60.202 13.2528 59.8255 12.8763 59.8255 12.4118C59.8255 11.9473 60.202 11.5707 60.6665 11.5707H78.374C78.8385 11.5707 79.215 11.9473 79.215 12.4118C79.215 12.8763 78.8385 13.2528 78.374 13.2528Z" fill="#D2DCFF"/>
<path d="M65.0899 20.1274H60.4261C60.0943 20.1274 59.8255 19.8586 59.8255 19.5268C59.8255 19.1949 60.0943 18.9261 60.4261 18.9261H65.0899C65.4217 18.9261 65.6905 19.1949 65.6905 19.5268C65.6905 19.8586 65.4217 20.1274 65.0899 20.1274Z" fill="#6277D7"/>
<path d="M99.3083 40.7562H84.8957C84.5638 40.7562 84.295 40.4874 84.295 40.1555V37.7285C84.295 37.3967 84.5638 37.1278 84.8957 37.1278H99.3083C99.6401 37.1278 99.909 37.3967 99.909 37.7285V40.1555C99.909 40.4874 99.6401 40.7562 99.3083 40.7562Z" fill="#D2DCFF"/>
<path d="M105.116 47.3518H84.896C84.5642 47.3518 84.2954 47.0831 84.2954 46.7512V44.3242C84.2954 43.9924 84.5642 43.7235 84.896 43.7235H105.116C105.448 43.7235 105.717 43.9924 105.717 44.3242V46.7512C105.717 47.0831 105.448 47.3518 105.116 47.3518Z" fill="#D2DCFF"/>
<path d="M68.8013 51.2675C68.8013 50.6489 69.3028 50.147 69.9218 50.147C65.5618 50.147 62.0146 46.5999 62.0146 42.2399C62.0146 37.8799 65.5618 34.3328 69.9218 34.3328C74.2818 34.3328 77.8289 37.8799 77.8289 42.2399C77.8289 41.6213 78.3303 41.1194 78.9493 41.1194C79.568 41.1194 80.0698 41.6209 80.0698 42.2399C80.0698 36.6444 75.5176 32.0923 69.9221 32.0923C64.3266 32.0923 59.7745 36.6444 59.7745 42.2399C59.7745 47.8354 64.3266 52.3875 69.9221 52.3875C69.3031 52.3879 68.8013 51.8861 68.8013 51.2675Z" fill="#D2DCFF"/>
<path d="M78.9493 41.1198C78.3307 41.1198 77.8289 41.6212 77.8289 42.2402C77.8289 46.6002 74.2817 50.1473 69.9217 50.1473C69.3031 50.1473 68.8013 50.6492 68.8013 51.2678C68.8013 51.8864 69.3028 52.3882 69.9217 52.3882C75.5173 52.3882 80.0694 47.8357 80.0694 42.2406C80.0694 41.6212 79.5679 41.1198 78.9493 41.1198Z" fill="#6277D7"/>
<path d="M148.938 19.7111H125.997C125.494 19.7111 125.086 20.1186 125.086 20.6214V43.5627C125.086 44.0656 125.494 44.473 125.997 44.473H148.938C149.441 44.473 149.848 44.0656 149.848 43.5627V20.6214C149.848 20.1186 149.441 19.7111 148.938 19.7111Z" fill="#89AEFF"/>
<path d="M141.014 19.7111H133.921V32.0923H141.014V19.7111Z" fill="#6277D7"/>
<path d="M129.091 96.0113V95.5249C129.091 95.3746 128.97 95.2526 128.819 95.2526H117.531C116.962 95.2526 116.5 95.7142 116.5 96.2836V97.1131C116.5 97.6828 116.962 98.1445 117.531 98.1445H128.819C128.969 98.1445 129.091 98.0224 129.091 97.8721V97.3858C129.091 97.2355 128.97 97.1134 128.819 97.1134H117.946C117.717 97.1134 117.531 96.9276 117.531 96.6989C117.531 96.4698 117.717 96.2839 117.946 96.2839H128.819C128.97 96.2836 129.091 96.1615 129.091 96.0113Z" fill="#6277D7"/>
<path d="M128.604 96.2836V97.1131H117.946C117.717 97.1131 117.531 96.9273 117.531 96.6985C117.531 96.4694 117.717 96.2836 117.946 96.2836H128.604Z" fill="#D2DCFF"/>
<path d="M128.285 93.1193V92.6326C128.285 92.4824 128.163 92.3603 128.013 92.3603H118.338C117.768 92.3603 117.307 92.822 117.307 93.3913V94.2208C117.307 94.7902 117.768 95.2518 118.338 95.2518H128.013C128.163 95.2518 128.285 95.1301 128.285 94.9795V94.4928C128.285 94.3425 128.163 94.2205 128.013 94.2205H118.753C118.524 94.2205 118.338 94.0346 118.338 93.8059C118.338 93.5768 118.524 93.391 118.753 93.391H128.013C128.163 93.3917 128.285 93.2696 128.285 93.1193Z" fill="#FE9ECC"/>
<path d="M127.926 93.3916V94.2211H118.752C118.523 94.2211 118.337 94.0353 118.337 93.8066C118.337 93.5775 118.523 93.3916 118.752 93.3916H127.926Z" fill="#FFD9E8"/>
<path d="M120.085 100.053L114.103 148.411H112.916L118.897 100.053H120.085Z" fill="#D2DCFF"/>
<path d="M135.801 148.411H134.613L129.496 107.04L128.632 100.053H129.82L130.671 106.941L135.801 148.411Z" fill="#D2DCFF"/>
<path d="M60.5292 100.053L58.9292 112.991L54.548 148.411H53.3604L57.7288 113.092L59.3416 100.053H60.5292Z" fill="#D2DCFF"/>
<path d="M76.2453 148.411H75.0577L70.5555 112.011L69.0765 100.053H70.2641L71.7308 111.911L76.2453 148.411Z" fill="#D2DCFF"/>
<path d="M59.3416 100.053H60.5293L58.9292 112.991L57.7289 113.092L59.3416 100.053Z" fill="#AEC3FF"/>
<path d="M70.2641 100.053L71.7308 111.911L70.5555 112.011L69.0765 100.053H70.2641Z" fill="#AEC3FF"/>
<path d="M130.671 106.941L129.496 107.04L128.632 100.053H129.82L130.671 106.941Z" fill="#AEC3FF"/>
<path d="M133.127 100.053H72.4016V98.1444H133.127C133.565 98.1444 133.921 98.4999 133.921 98.9383V99.2589C133.921 99.6973 133.565 100.053 133.127 100.053Z" fill="#D2DCFF"/>
<path d="M72.4015 100.053H56.3343C55.8958 100.053 55.5404 99.6973 55.5404 99.2589V98.9383C55.5404 98.4999 55.8958 98.1444 56.3343 98.1444H72.4015V100.053Z" fill="#86A2E2"/>
<path d="M72.3882 93.5036H77.7148C77.9777 93.5036 78.1811 93.7331 78.1501 93.9938L77.6997 97.7581C77.6733 97.9784 77.4865 98.1441 77.2644 98.1441H72.839C72.6169 98.1441 72.4301 97.9784 72.4037 97.7581L71.9532 93.9938C71.9219 93.7334 72.1257 93.5036 72.3882 93.5036Z" fill="#D2DCFF"/>
<path d="M76.8801 91.9676V90.256L75.8561 92.202V89.0419L75.0517 91.0316L74.2469 89.0419V92.202L73.2229 90.256V91.9676L71.7308 89.5687L72.3882 93.5036H75.0517H77.7148L78.3722 89.5687L76.8801 91.9676Z" fill="#6277D7"/>
<path d="M115.293 93.2552H81.9686L85.6839 73.2273H119.009L115.293 93.2552Z" fill="#D2DCFF"/>
<path d="M98.4676 84.4092H102.21L107.138 98.1444H100.599L98.4676 84.4092Z" fill="#86A2E2"/>
<path d="M98.3325 97.2625H87.209C87.0063 97.2625 86.8423 97.4268 86.8423 97.6292V97.7774C86.8423 97.9801 87.0067 98.1441 87.209 98.1441H98.3325C98.5352 98.1441 98.6992 97.9797 98.6992 97.7774V97.6292C98.6995 97.4268 98.5352 97.2625 98.3325 97.2625Z" fill="#86A2E2"/>
<path d="M98.4676 84.4092V93.2551H99.8407L98.4676 84.4092Z" fill="#AEC3FF"/>
<path d="M46.5048 41.8762C41.8984 42.6437 36.159 40.9296 35.4394 39.8377C33.7717 42.3791 32.9244 42.2995 32.9244 42.2995V44.2054L32.5478 43.8289C32.4317 43.566 32.2473 43.3056 31.9714 43.3056C30.4547 43.3056 30.3488 47.5242 32.9015 47.768C32.9518 47.9334 33.0039 48.0879 33.057 48.2276V54.9798H38.8147V52.324C39.2018 52.4303 39.5727 52.4912 39.9134 52.4912C42.1835 52.4912 46.0519 49.1531 46.4903 43.8285C46.5167 42.8242 46.5048 41.8762 46.5048 41.8762Z" fill="#FCBEB7"/>
<path d="M39.5161 34.649C35.5453 34.649 34.7511 36.7667 34.7511 36.7667C33.0567 36.7667 30.4625 39.8641 32.0246 43.3053L32.0327 43.3134L32.9247 44.2054V42.2996C32.9247 42.2996 33.7717 42.3791 35.4397 39.8377C36.1594 40.9297 41.8991 42.6438 46.5051 41.8763C46.5051 41.8763 46.5171 42.8242 46.4907 43.8289C46.4907 43.8299 46.4907 43.831 46.4907 43.8321C48.2108 38.8552 44.7576 34.649 39.5161 34.649Z" fill="#311643"/>
<path d="M37.8087 45.2826C37.6331 45.2826 37.4909 45.1404 37.4909 44.9648V44.3711C37.4909 44.1955 37.6331 44.0534 37.8087 44.0534C37.9843 44.0534 38.1265 44.1955 38.1265 44.3711V44.9648C38.1265 45.1404 37.9839 45.2826 37.8087 45.2826Z" fill="#311643"/>
<path d="M43.6987 45.2826C43.5232 45.2826 43.381 45.1404 43.381 44.9648V44.3711C43.381 44.1955 43.5232 44.0534 43.6987 44.0534C43.8743 44.0534 44.0165 44.1955 44.0165 44.3711V44.9648C44.0165 45.1404 43.8743 45.2826 43.6987 45.2826Z" fill="#311643"/>
<path d="M40.1442 48.9906C39.5773 48.9906 39.1913 48.7773 38.9573 48.5831C38.6624 48.3382 38.5399 48.0711 38.5347 48.0599C38.5016 47.9867 38.5343 47.9004 38.6075 47.8673C38.6807 47.8343 38.7666 47.867 38.7996 47.9398C38.8162 47.9757 39.2187 48.8203 40.3888 48.6848C40.4687 48.6756 40.5408 48.7327 40.55 48.8129C40.5591 48.8928 40.5021 48.9649 40.4222 48.9741C40.3255 48.9853 40.2326 48.9906 40.1442 48.9906Z" fill="#311643"/>
<path d="M35.6998 47.9166C36.5673 47.9166 37.2706 47.2133 37.2706 46.3457C37.2706 45.4781 36.5673 44.7748 35.6998 44.7748C34.8322 44.7748 34.1289 45.4781 34.1289 46.3457C34.1289 47.2133 34.8322 47.9166 35.6998 47.9166Z" fill="#F49795"/>
<path d="M46.3271 45.0415C46.1279 46.0965 45.7943 47.0583 45.3724 47.9144C44.5415 47.8733 43.881 47.1867 43.881 46.3457C43.881 45.4783 44.5841 44.7752 45.4515 44.7752C45.7756 44.7749 46.0769 44.873 46.3271 45.0415Z" fill="#F49795"/>
<path d="M43.6988 41.5684C42.5519 41.5684 41.605 42.4404 41.4857 43.5559C40.8621 43.2624 40.3117 43.4215 40.0214 43.5549C39.9018 42.4397 38.9552 41.5684 37.8087 41.5684C36.5813 41.5684 35.583 42.5667 35.583 43.7942C35.583 45.0216 36.5816 46.0199 37.8087 46.0199C39.0083 46.0199 39.9891 45.0655 40.0323 43.8761C40.2167 43.7716 40.809 43.501 41.4748 43.8779C41.5191 45.0663 42.4995 46.0195 43.6984 46.0195C44.9258 46.0195 45.9241 45.0212 45.9241 43.7938C45.9245 42.5671 44.9262 41.5684 43.6988 41.5684ZM37.8087 45.7292C36.7418 45.7292 35.874 44.8614 35.874 43.7945C35.874 42.7279 36.7418 41.8597 37.8087 41.8597C38.8753 41.8597 39.7434 42.7275 39.7434 43.7945C39.7434 44.8611 38.8753 45.7292 37.8087 45.7292ZM43.6988 45.7292C42.6318 45.7292 41.764 44.8614 41.764 43.7945C41.764 42.7279 42.6318 41.8597 43.6988 41.8597C44.7657 41.8597 45.6335 42.7275 45.6335 43.7945C45.6335 44.8611 44.7657 45.7292 43.6988 45.7292Z" fill="white"/>
<path d="M38.8144 54.9798V52.3241C37.5124 51.9662 36.0302 51.0896 34.9161 50.2538L38.8144 54.9798Z" fill="#F9AFAB"/>
<path d="M52.5774 140.74H46.4798L36.2262 95.6507L25.7221 140.74H19.624L25.3061 90.1548L47.8346 90.1544L52.5774 140.74Z" fill="#6277D7"/>
<path d="M46.9637 143.192V147.501C46.9637 148.004 47.3711 148.411 47.8737 148.411H60.0965C60.2126 148.411 60.3069 148.317 60.3069 148.201V147.371C60.3069 147.008 60.0993 146.677 59.7727 146.52L52.8808 143.192H46.9637V143.192Z" fill="#2F3D6C"/>
<path d="M25.0588 143.192V147.501C25.0588 148.004 24.6513 148.411 24.1488 148.411H11.926C11.8095 148.411 11.7155 148.317 11.7155 148.201V147.371C11.7155 147.008 11.9232 146.677 12.2497 146.52L19.1416 143.192H25.0588V143.192Z" fill="#2F3D6C"/>
<path d="M46.4798 140.74L46.9387 143.192H52.8808L52.5775 140.74H46.4798Z" fill="#FCBEB7"/>
<path d="M19.6241 140.74L19.142 143.192H25.0588L25.7221 140.74H19.6241Z" fill="#FCBEB7"/>
<path d="M25.184 91.2397L48.0573 92.5319L47.8346 90.1544L25.3061 90.1548" fill="#4A5EA3"/>
<path d="M46.3422 68.3534L47.8346 90.1544H25.3061L26.6866 74.6193L26.3805 66.329L25.2111 67.4945L20.0126 63.4979L22.8059 58.9458C23.497 57.82 24.4954 56.915 25.6837 56.3382L32.0914 53.2282L32.3258 53.1145L33.0574 52.7595C33.0574 52.7595 36.4011 54.9539 38.8049 52.7595L40.089 53.2437L40.3501 53.3419L47.1414 55.9019C48.2048 56.3027 49.0705 57.1022 49.5543 58.1311L52.4346 64.2581L46.3422 68.3534Z" fill="#89AEFF"/>
<path d="M40.0886 53.244C38.9868 54.0263 37.6736 54.4478 36.2948 54.4478C34.8425 54.4478 33.4621 53.9798 32.3258 53.1149L32.0914 53.2285C33.2854 54.1699 34.751 54.6808 36.2952 54.6808C37.7756 54.6808 39.1839 54.2114 40.3501 53.3418L40.0886 53.244Z" fill="white"/>
<path d="M25.404 57.0815C25.404 58.1509 24.5369 59.0176 23.4675 59.0176C23.2433 59.0176 23.0287 58.9796 22.8284 58.9096C23.4467 57.9162 24.3057 57.097 25.3234 56.5269C25.3758 56.7029 25.404 56.889 25.404 57.0815Z" fill="#4A62D3"/>
<path d="M26.5744 113.194C28.1865 113.194 29.4934 111.887 29.4934 110.275C29.4934 108.662 28.1865 107.356 26.5744 107.356C24.9623 107.356 23.6554 108.662 23.6554 110.275C23.6554 111.887 24.9623 113.194 26.5744 113.194Z" fill="#4A5EA3"/>
<path d="M46.0473 113.194C47.6594 113.194 48.9663 111.887 48.9663 110.275C48.9663 108.662 47.6594 107.356 46.0473 107.356C44.4352 107.356 43.1283 108.662 43.1283 110.275C43.1283 111.887 44.4352 113.194 46.0473 113.194Z" fill="#4A5EA3"/>
<path d="M36.4771 87.2682L18.1299 92.5037C17.828 92.5899 17.5134 92.415 17.4275 92.1131L14.1387 80.5882C14.0525 80.2862 14.2274 79.9716 14.5293 79.8857L32.8765 74.6502C33.1784 74.564 33.4931 74.7389 33.5789 75.0408L36.8677 86.5661C36.954 86.8673 36.7791 87.182 36.4771 87.2682Z" fill="#4A5EA3"/>
<path d="M43.0938 67.8294H38.1687C38.005 67.8294 37.872 67.6968 37.872 67.5328V58.324C37.872 58.1604 38.0047 58.0273 38.1687 58.0273H43.0938C43.2575 58.0273 43.3905 58.16 43.3905 58.324V67.5328C43.3905 67.6968 43.2578 67.8294 43.0938 67.8294Z" fill="#4A5EA3"/>
<path d="M56.5405 73.9644L52.4342 64.258L49.3009 66.3528L44.8991 62.4954L43.9993 59.4106C43.9866 59.3121 43.9092 59.2347 43.811 59.2217C43.3796 59.1647 43.0097 59.5281 43.059 59.9603L43.2135 61.3116L41.58 61.528C41.1394 61.5864 40.6914 61.5477 40.2674 61.4143L38.7475 60.9364C38.2911 60.7928 37.8059 61.0515 37.6707 61.5104L37.0841 61.3745C36.7977 61.3084 36.5109 61.4822 36.437 61.7666L36.4328 61.782C36.3694 62.0266 36.4827 62.2825 36.7069 62.3993C36.5872 62.867 36.8649 63.3445 37.3308 63.4715L37.3442 63.475C37.2186 63.9462 37.4512 64.4392 37.8949 64.6419L39.0449 65.1673C39.4774 65.3651 39.9514 65.4548 40.4261 65.4288L43.0386 65.2162L51.9095 76.8109L51.9113 76.813C52.696 77.7494 54.0336 78.0714 55.1801 77.5351C56.5222 76.908 57.1247 75.3273 56.5405 73.9644Z" fill="#FCBEB7"/>
<path d="M49.6212 58.2743C49.4115 58.3556 49.1838 58.4004 48.9455 58.4004C47.9113 58.4004 47.0728 57.5618 47.0728 56.5272C47.0728 56.3129 47.109 56.1071 47.1752 55.9149C48.2231 56.3203 49.0754 57.1134 49.554 58.1315L49.6212 58.2743Z" fill="#4A62D3"/>
<path d="M49.8608 66.8441L54.6142 69.4112L55.6889 71.9512L49.8608 66.8441Z" fill="#F9AFAB"/>
<path d="M25.2942 90.4599L18.5652 78.7337L19.989 78.3276L25.2942 90.4599Z" fill="#2F3D6C"/>
<path d="M53.8422 77.1156C54.8621 77.1156 55.6889 76.2888 55.6889 75.2689C55.6889 74.2489 54.8621 73.4222 53.8422 73.4222C52.8222 73.4222 51.9954 74.2489 51.9954 75.2689C51.9954 76.2888 52.8222 77.1156 53.8422 77.1156Z" fill="#F9AFAB"/>
<path d="M18.7485 70.0115C18.7485 70.9648 18.0676 71.7594 17.165 71.9343L16.8353 71.1671C16.5038 70.3968 16.5548 69.515 16.9728 68.788L17.349 68.1335C18.1584 68.3742 18.7485 69.124 18.7485 70.0115Z" fill="#F9AFAB"/>
<path d="M30.3136 88.3365L28.0224 87.3139C27.8637 87.2432 27.7409 87.1109 27.6814 86.9477L27.3492 86.033L28.507 86.317L28.8761 87.1099C29.0003 87.3766 29.3142 87.4965 29.5849 87.3801L29.1027 85.9246C29.0127 85.6931 28.8388 85.5038 28.6157 85.394L26.1964 84.2039L22.0229 70.6668L25.2115 67.4948L20.0129 63.4982L16.9732 68.7884C16.5552 69.5157 16.5045 70.3972 16.8356 71.1675L25.272 90.4599L26.9463 90.537C27.1476 90.5465 27.3376 90.4444 27.4411 90.2716L27.6234 89.9672L28.5045 90.0394C28.6931 90.0549 28.8765 89.9718 28.9894 89.8195L29.1967 89.5397L29.3202 89.5725C29.6577 89.6615 30.0121 89.5073 30.1771 89.1998L30.7887 89.4039C30.9266 88.9795 30.7218 88.5185 30.3136 88.3365Z" fill="#FCBEB7"/>
<path d="M152.471 131.781H135.84V148.411H152.471V131.781Z" fill="#D2DCFF"/>
<path d="M135.84 131.781H126.68V148.411H135.84V131.781Z" fill="#AEC3FF"/>
<path d="M135.84 134.624H126.68V135.111H135.84V134.624Z" fill="#86A2E2"/>
<path d="M152.471 134.624H135.84V135.111H152.471V134.624Z" fill="#AEC3FF"/>
<path d="M147.215 137.492H141.096C140.98 137.492 140.885 137.398 140.885 137.282V137.269C140.885 137.153 140.98 137.059 141.096 137.059H147.215C147.331 137.059 147.426 137.153 147.426 137.269V137.282C147.426 137.398 147.331 137.492 147.215 137.492Z" fill="#86A2E2"/>
</svg>
