<svg width="197" height="167" viewBox="0 0 197 167" fill="none" xmlns="http://www.w3.org/2000/svg">
<path d="M107.268 107.217V106.67C107.268 106.501 107.13 106.364 106.961 106.364H94.2631C93.6226 106.364 93.1032 106.883 93.1032 107.524V108.457C93.1032 109.098 93.6226 109.617 94.2631 109.617H106.961C107.13 109.617 107.268 109.48 107.268 109.311V108.764C107.268 108.595 107.13 108.458 106.961 108.458H94.7294C94.4717 108.458 94.2627 108.249 94.2627 107.991C94.2627 107.734 94.4717 107.525 94.7294 107.525H106.961C107.13 107.524 107.268 107.387 107.268 107.217Z" fill="#6277D7"/>
<path d="M106.719 107.524V108.457H94.7294C94.4717 108.457 94.2627 108.248 94.2627 107.991C94.2627 107.733 94.4717 107.525 94.7294 107.525H106.719V107.524Z" fill="#D2DCFF"/>
<path d="M106.36 103.964V103.417C106.36 103.248 106.223 103.111 106.054 103.111H95.17C94.5295 103.111 94.0101 103.63 94.0101 104.271V105.204C94.0101 105.844 94.5295 106.364 95.17 106.364H106.054C106.223 106.364 106.36 106.227 106.36 106.057V105.51C106.36 105.341 106.223 105.204 106.054 105.204H95.6367C95.379 105.204 95.17 104.995 95.17 104.738C95.17 104.48 95.379 104.271 95.6367 104.271H106.054C106.223 104.271 106.36 104.134 106.36 103.964Z" fill="#FE9ECC"/>
<path d="M105.957 104.271V105.204H95.6366C95.3789 105.204 95.1699 104.995 95.1699 104.737C95.1699 104.48 95.3789 104.271 95.6366 104.271H105.957Z" fill="#FFD9E8"/>
<path d="M97.135 111.764L90.4066 166.164H89.0706L95.799 111.764H97.135Z" fill="#D2DCFF"/>
<path d="M114.815 166.164H113.479L107.722 119.624L106.75 111.764H108.086L109.044 119.512L114.815 166.164Z" fill="#D2DCFF"/>
<path d="M30.1391 111.764L28.3391 126.318L23.4107 166.164H22.0746L26.9889 126.432L28.8031 111.764H30.1391Z" fill="#D2DCFF"/>
<path d="M47.8187 166.164H46.4827L41.418 125.216L39.7542 111.764H41.0902L42.7402 125.104L47.8187 166.164Z" fill="#D2DCFF"/>
<path d="M28.8031 111.764H30.1392L28.3392 126.318L26.9889 126.432L28.8031 111.764Z" fill="#AEC3FF"/>
<path d="M41.0902 111.764L42.7402 125.104L41.418 125.216L39.7542 111.764H41.0902Z" fill="#AEC3FF"/>
<path d="M109.044 119.512L107.722 119.624L106.75 111.764H108.086L109.044 119.512Z" fill="#AEC3FF"/>
<path d="M111.806 111.764H43.4947V109.617H111.806C112.3 109.617 112.699 110.017 112.699 110.51V110.871C112.7 111.364 112.3 111.764 111.806 111.764Z" fill="#D2DCFF"/>
<path d="M43.4947 111.764H25.42C24.9268 111.764 24.527 111.364 24.527 110.871V110.51C24.527 110.017 24.9268 109.617 25.42 109.617H43.4947V111.764Z" fill="#86A2E2"/>
<path d="M43.4797 104.397H49.4718C49.7675 104.397 49.9963 104.655 49.9615 104.948L49.4548 109.183C49.4251 109.431 49.2149 109.617 48.9651 109.617H43.9868C43.737 109.617 43.5268 109.431 43.4971 109.183L42.9904 104.948C42.9552 104.655 43.1844 104.397 43.4797 104.397Z" fill="#D2DCFF"/>
<path d="M48.5328 102.669V100.743L47.3809 102.932V99.3777L46.4759 101.616L45.5706 99.3777V102.932L44.4186 100.743V102.669L42.7402 99.9699L43.4796 104.397H46.4759H49.4718L50.2113 99.9699L48.5328 102.669Z" fill="#6277D7"/>
<path d="M91.745 104.117H54.257L58.4365 81.5869H95.9245L91.745 104.117Z" fill="#D2DCFF"/>
<path d="M72.8173 94.1661H77.0277L82.5709 109.617H75.2158L72.8173 94.1661Z" fill="#86A2E2"/>
<path d="M72.6657 108.625H60.1525C59.9245 108.625 59.7396 108.81 59.7396 109.038V109.205C59.7396 109.433 59.9245 109.617 60.1525 109.617H72.6657C72.8937 109.617 73.0786 109.432 73.0786 109.205V109.038C73.0782 108.81 72.8933 108.625 72.6657 108.625Z" fill="#86A2E2"/>
<path d="M72.8173 94.1661V104.117H74.362L72.8173 94.1661Z" fill="#AEC3FF"/>
<path d="M131.182 132.547L135.237 166.164H136.567L132.512 132.547H131.182Z" fill="#D2DCFF"/>
<path d="M149.101 132.546L149.558 136.327L153.156 166.164H154.486L150.87 136.179L150.431 132.546H149.101Z" fill="#D2DCFF"/>
<path d="M131.182 166.164H132.512L133.073 161.514L133.738 156.002L135.925 137.868L136.567 132.546H135.237L134.576 138.02L133.073 150.488L132.408 156.001L131.182 166.164Z" fill="#D2DCFF"/>
<path d="M113.262 166.164H114.593L117.74 140.071H117.74L118.647 132.546H117.317L116.392 140.216L113.262 166.164Z" fill="#D2DCFF"/>
<path d="M150.367 110.073H149.036V130.409H150.367V110.073Z" fill="#D2DCFF"/>
<path d="M132.295 110.073H130.965V130.409H132.295V110.073Z" fill="#D2DCFF"/>
<path d="M116.759 130.409H135.032C134.441 130.409 133.963 130.887 133.963 131.477C133.963 132.068 134.441 132.546 135.032 132.546H116.759C116.169 132.546 115.69 132.068 115.69 131.477C115.69 130.887 116.169 130.409 116.759 130.409Z" fill="#D2DCFF"/>
<path d="M133.963 131.477C133.963 130.887 134.442 130.409 135.032 130.409H149.009H150.809C151.399 130.409 151.878 130.887 151.878 131.477C151.878 132.068 151.399 132.546 150.809 132.546H149.009H135.032C134.441 132.546 133.963 132.068 133.963 131.477Z" fill="#86A2E2"/>
<path d="M129.878 94.7699H151.453C152.276 94.7699 152.943 95.437 152.943 96.2592V108.584C152.943 109.406 152.276 110.074 151.453 110.074H129.878C129.056 110.074 128.389 109.406 128.389 108.584V96.2592C128.389 95.4366 129.056 94.7699 129.878 94.7699Z" fill="#D2DCFF"/>
<path d="M149.101 132.546L149.557 136.327C150.038 136.273 150.477 136.223 150.869 136.179L150.431 132.546H149.101Z" fill="#AEC3FF"/>
<path d="M135.237 132.546L134.576 138.021C135.028 137.97 135.478 137.919 135.925 137.869L136.567 132.546H135.237Z" fill="#AEC3FF"/>
<path d="M116.392 140.216C116.821 140.17 117.271 140.122 117.74 140.071H117.74L118.647 132.546H117.317L116.392 140.216Z" fill="#AEC3FF"/>
<path d="M150.367 110.073H149.036V112.882L150.367 112.735V110.073Z" fill="#AEC3FF"/>
<path d="M130.965 110.073V114.882L132.295 114.735V110.073H130.965Z" fill="#AEC3FF"/>
<path d="M123.763 78.2625C124.257 84.2523 128.608 88.0075 131.162 88.0075C131.545 88.0075 131.962 87.939 132.398 87.8194V90.8069H138.875V83.2112C138.935 83.054 138.993 82.8799 139.05 82.6942C141.922 82.4199 141.802 77.6743 140.096 77.6743C139.786 77.6743 139.578 77.9676 139.448 78.2629L139.024 78.6865V76.5425C139.024 76.5425 138.071 76.632 136.195 73.7731C135.386 75.0011 128.929 76.9297 123.747 76.066C123.747 76.066 123.734 77.1323 123.763 78.2625Z" fill="#FCBEB7"/>
<path d="M131.609 67.9361C136.076 67.9361 136.969 70.3184 136.969 70.3184C138.875 70.3184 141.794 73.8028 140.036 77.6739L140.027 77.683L139.024 78.6865V76.5425C139.024 76.5425 138.071 76.632 136.195 73.7731C135.385 75.0011 128.928 76.9297 123.747 76.0659C123.747 76.0659 123.733 77.1323 123.763 78.2625C123.763 78.2637 123.763 78.2649 123.763 78.2661C121.828 72.6674 125.713 67.9361 131.609 67.9361Z" fill="#311643"/>
<path d="M133.53 79.8978C133.727 79.8978 133.887 79.7379 133.887 79.5403V78.8729C133.887 78.6754 133.727 78.5155 133.53 78.5155C133.332 78.5155 133.172 78.6754 133.172 78.8729V79.5403C133.172 79.7379 133.333 79.8978 133.53 79.8978Z" fill="#311643"/>
<path d="M126.904 79.8978C127.101 79.8978 127.261 79.7379 127.261 79.5403V78.8729C127.261 78.6754 127.101 78.5155 126.904 78.5155C126.706 78.5155 126.546 78.6754 126.546 78.8729V79.5403C126.546 79.7379 126.706 79.8978 126.904 79.8978Z" fill="#311643"/>
<path d="M130.902 84.069C131.54 84.069 131.974 83.8291 132.238 83.6106C132.569 83.3351 132.707 83.0346 132.713 83.0219C132.75 82.9396 132.713 82.8426 132.631 82.8054C132.549 82.7682 132.452 82.805 132.415 82.887C132.396 82.9274 131.943 83.8774 130.627 83.725C130.537 83.7151 130.456 83.7788 130.445 83.8691C130.435 83.9594 130.499 84.0401 130.589 84.0504C130.699 84.0631 130.803 84.069 130.902 84.069Z" fill="#311643"/>
<path d="M135.902 82.8608C136.878 82.8608 137.669 82.0697 137.669 81.0937C137.669 80.1178 136.878 79.3265 135.902 79.3265C134.926 79.3265 134.135 80.1178 134.135 81.0937C134.135 82.0697 134.926 82.8608 135.902 82.8608Z" fill="#F49795"/>
<path d="M123.947 79.6266C124.171 80.8134 124.546 81.8953 125.021 82.8584C125.956 82.8121 126.699 82.0398 126.699 81.0937C126.699 80.1179 125.908 79.3269 124.932 79.3269C124.567 79.3265 124.229 79.4374 123.947 79.6266Z" fill="#F49795"/>
<path d="M124.4 78.2237C124.4 79.6045 125.523 80.7275 126.904 80.7275C128.253 80.7275 129.355 79.6551 129.405 78.3183C130.154 77.8944 130.821 78.1987 131.028 78.3163C131.077 79.6543 132.18 80.7275 133.529 80.7275C134.91 80.7275 136.033 79.6045 136.033 78.2237C136.033 76.8429 134.91 75.7199 133.529 75.7199C132.24 75.7199 131.175 76.7001 131.04 77.9546C130.713 77.8045 130.094 77.6256 129.393 77.9557C129.259 76.7004 128.194 75.7199 126.903 75.7199C125.523 75.7199 124.4 76.8429 124.4 78.2237ZM131.353 78.2237C131.353 77.0235 132.33 76.0472 133.53 76.0472C134.73 76.0472 135.706 77.0235 135.706 78.2237C135.706 79.4236 134.73 80.4002 133.53 80.4002C132.33 80.4002 131.353 79.424 131.353 78.2237ZM124.727 78.2237C124.727 77.0235 125.704 76.0472 126.904 76.0472C128.104 76.0472 129.08 77.0235 129.08 78.2237C129.08 79.4236 128.104 80.4002 126.904 80.4002C125.704 80.4002 124.727 79.424 124.727 78.2237Z" fill="white"/>
<path d="M132.398 90.8069V87.8194C133.863 87.4168 135.53 86.4307 136.784 85.4905L132.398 90.8069Z" fill="#F9AFAB"/>
<path d="M113.995 141.877L115.348 141.692L116.628 131.074H115.298L113.995 141.877Z" fill="#EBEDF4"/>
<path d="M117.587 101.302L116.413 103.553H122.673L117.587 101.302Z" fill="#FCBEB7"/>
<path d="M129.578 160.293V165.14C129.578 165.706 129.119 166.164 128.554 166.164H114.804C114.674 166.164 114.568 166.058 114.568 165.927V165.034C114.568 164.603 114.819 164.211 115.211 164.031L123.161 160.292H129.578V160.293Z" fill="#2F3D6C"/>
<path d="M129.578 157.535L129.574 160.293H123.162L122.718 157.535H129.578Z" fill="#FCBEB7"/>
<path d="M132.409 87.9892L123.703 91.9217C122.506 92.4624 121.532 93.3994 120.945 94.5747L117.587 101.301L122.673 103.553L122.252 118.421H147.595L146.488 104.535L151.072 104.565V96.9669C151.072 94.6135 149.657 92.4909 147.486 91.584L138.875 87.9888C138.875 87.9892 135.114 90.4577 132.409 87.9892Z" fill="#89AEFF"/>
<path d="M130.326 88.8937C131.7 90.0453 133.419 90.6724 135.233 90.6724C137.143 90.6724 139.026 89.9099 140.434 88.64L140.156 88.5244C138.809 89.7065 137.041 90.4103 135.232 90.4103C133.525 90.4103 131.906 89.8351 130.596 88.7766L130.326 88.8937Z" fill="white"/>
<path d="M116.084 160.293V165.14C116.084 165.706 115.626 166.164 115.06 166.164H101.311C101.18 166.164 101.074 166.058 101.074 165.927V165.034C101.074 164.603 101.325 164.211 101.717 164.031L109.668 160.292H116.084V160.293Z" fill="#2F3D6C"/>
<path d="M116.084 157.535L116.081 160.293H109.668L109.225 157.535H116.084Z" fill="#FCBEB7"/>
<path d="M134.102 118.422L134.102 118.681C134.107 125.193 128.829 130.475 122.317 130.475H116.842L116.084 157.534H109.224L104.166 125.271C103.602 121.673 106.384 118.421 110.025 118.421H134.102V118.422Z" fill="#6277D7"/>
<path d="M104.094 124.366C104.685 125.231 105.679 125.798 106.805 125.798C108.618 125.798 110.088 124.328 110.088 122.515C110.088 120.773 108.732 119.349 107.019 119.238C105.25 120.282 104.084 122.213 104.094 124.366Z" fill="#4A5EA3"/>
<path d="M117.588 124.24L116.842 130.475H121.334L117.588 124.24Z" fill="#4A5EA3"/>
<path d="M147.595 118.422V118.681C147.601 125.193 142.323 130.475 135.81 130.475H130.335L129.577 157.534H122.718L117.66 125.271C117.096 121.673 119.877 118.421 123.519 118.421H147.595V118.422Z" fill="#6277D7"/>
<path d="M151.071 104.565L150.827 112.986C150.762 115.262 148.897 117.073 146.62 117.073H131.961L130.977 113.645L143.908 111.513L143.999 104.519L151.071 104.565Z" fill="#FCBEB7"/>
<path d="M146.724 115.322C146.724 115.987 147.023 116.583 147.494 116.982C149.01 116.662 150.228 115.526 150.659 114.049C150.265 113.503 149.623 113.148 148.897 113.148C147.697 113.148 146.724 114.121 146.724 115.322Z" fill="#F9AFAB"/>
<path d="M143.999 104.52L142.014 111.826L143.908 111.513L143.999 104.52Z" fill="#4A62D3"/>
<path d="M132.784 113.347L135.095 117.073H131.961L130.977 113.645L132.784 113.347Z" fill="#F9AFAB"/>
<path d="M107.594 103.553H126.708C127.521 103.553 128.235 104.091 128.459 104.872L131.961 117.073H139.712C140.085 117.073 140.387 117.375 140.387 117.747C140.387 118.12 140.085 118.422 139.712 118.422H132.348H130.007H109.444L105.843 105.877C105.509 104.713 106.383 103.553 107.594 103.553Z" fill="#4A5EA3"/>
<path d="M117.588 124.24C118.166 125.175 119.201 125.798 120.382 125.798C122.195 125.798 123.665 124.328 123.665 122.515C123.665 120.748 122.269 119.306 120.519 119.234C118.781 120.256 117.624 122.135 117.588 124.24Z" fill="#4A5EA3"/>
<path d="M118.216 112.552C118.607 112.518 118.883 112.028 118.832 111.459C118.782 110.889 118.425 110.455 118.035 110.489C117.645 110.523 117.369 111.013 117.419 111.583C117.469 112.153 117.826 112.587 118.216 112.552Z" fill="#89AEFF"/>
<path d="M147.226 94.6765C147.226 95.7382 148.087 96.5992 149.149 96.5992C149.915 96.5992 150.576 96.1514 150.885 95.5038C150.613 94.4544 150.054 93.504 149.277 92.7586C149.235 92.7554 149.192 92.7542 149.149 92.7542C148.087 92.7542 147.226 93.6148 147.226 94.6765Z" fill="#4A62D3"/>
<path d="M121.064 94.3499C121.37 94.5562 121.739 94.6765 122.136 94.6765C123.198 94.6765 124.059 93.8155 124.059 92.7542C124.059 92.4316 123.98 92.1275 123.839 91.8607L123.703 91.9221C122.583 92.4276 121.659 93.2799 121.064 94.3499Z" fill="#4A62D3"/>
<path d="M31.3532 147.456H12.6452V166.164H31.3532V147.456Z" fill="#D2DCFF"/>
<path d="M12.6456 147.456H2.34015V166.164H12.6456V147.456Z" fill="#AEC3FF"/>
<path d="M12.6456 150.655H2.34015V151.203H12.6456V150.655Z" fill="#86A2E2"/>
<path d="M31.3532 150.655H12.6452V151.203H31.3532V150.655Z" fill="#AEC3FF"/>
<path d="M25.4415 153.881H18.5575C18.4268 153.881 18.3207 153.775 18.3207 153.644V153.631C18.3207 153.5 18.4268 153.394 18.5575 153.394H25.4415C25.5721 153.394 25.6782 153.5 25.6782 153.631V153.644C25.6782 153.775 25.5721 153.881 25.4415 153.881Z" fill="#86A2E2"/>
<path d="M189.225 146.875L179.667 142.237L175.648 150.521L185.207 155.159L189.225 146.875Z" fill="#4A5EA3"/>
<path d="M179.193 143.418L168.653 144.747L169.805 153.881L180.345 152.552L179.193 143.418Z" fill="#4A5EA3"/>
<path d="M192.625 147.456H173.917V166.164H192.625V147.456Z" fill="#D2DCFF"/>
<path d="M173.917 147.456H163.611V166.164H173.917V147.456Z" fill="#AEC3FF"/>
<path d="M163.611 147.456L158.258 153.19H169.886L173.917 147.456H163.611Z" fill="#86A2E2"/>
<path d="M192.625 147.456L196.445 153.264H177.765L173.917 147.429L192.625 147.456Z" fill="#AEC3FF"/>
<path d="M177.886 143.646L177.133 147.434L179.166 143.484L177.886 143.646Z" fill="#2F3D6C"/>
<path d="M92.1136 36.0443H51.6973C50.3174 36.0443 49.1987 34.9256 49.1987 33.5456V2.49868C49.1987 1.11871 50.3174 0 51.6973 0H92.1136C93.4935 0 94.6122 1.11871 94.6122 2.49868V33.5456C94.6118 34.9256 93.4931 36.0443 92.1136 36.0443Z" fill="#D2DCFF"/>
<path d="M92.1136 46.2501H51.6973C50.3174 46.2501 49.1987 45.1314 49.1987 43.7514V29.7438H94.6118V43.7514C94.6118 45.1314 93.4931 46.2501 92.1136 46.2501Z" fill="#6277D7"/>
<path d="M79.499 36.0444H56.8043C56.431 36.0444 56.1286 35.7419 56.1286 35.3686C56.1286 34.9953 56.431 34.6929 56.8043 34.6929H79.499C79.8723 34.6929 80.1748 34.9953 80.1748 35.3686C80.1748 35.7415 79.8723 36.0444 79.499 36.0444Z" fill="#D2DCFF"/>
<path d="M68.7942 39.7294H56.8043C56.431 39.7294 56.1286 39.427 56.1286 39.0537C56.1286 38.6804 56.431 38.3779 56.8043 38.3779H68.7942C69.1675 38.3779 69.4699 38.6804 69.4699 39.0537C69.4699 39.427 69.1675 39.7294 68.7942 39.7294Z" fill="#D2DCFF"/>
<path d="M86.1697 15.3784H74.1799C73.8066 15.3784 73.5042 15.0759 73.5042 14.7026C73.5042 14.3293 73.8066 14.027 74.1799 14.027H86.1697C86.543 14.027 86.8455 14.3293 86.8455 14.7026C86.8455 15.0759 86.543 15.3784 86.1697 15.3784Z" fill="#6277D7"/>
<path d="M80.2306 19.0639H74.1799C73.8066 19.0639 73.5042 18.7614 73.5042 18.3881C73.5042 18.0149 73.8066 17.7124 74.1799 17.7124H80.2306C80.6039 17.7124 80.9064 18.0149 80.9064 18.3881C80.9064 18.7614 80.6035 19.0639 80.2306 19.0639Z" fill="#6277D7"/>
<path d="M62.7027 22.5673C62.7027 22.1041 63.0783 21.7284 63.5415 21.7284C60.2776 21.7284 57.6222 19.073 57.6222 15.8091C57.6222 12.5453 60.2776 9.88978 63.5415 9.88978C66.8054 9.88978 69.4608 12.5453 69.4608 15.8091C69.4608 15.346 69.8365 14.9702 70.2996 14.9702C70.7628 14.9702 71.1385 15.346 71.1385 15.8091C71.1385 11.6201 67.7305 8.21259 63.5419 8.21259C59.3529 8.21259 55.9453 11.6205 55.9453 15.8091C55.9453 19.9977 59.3533 23.4057 63.5419 23.4057C63.0779 23.4061 62.7027 23.0304 62.7027 22.5673Z" fill="#89AEFF"/>
<path d="M70.2992 14.9706C69.8361 14.9706 69.4604 15.3463 69.4604 15.8095C69.4604 19.0733 66.805 21.7287 63.5411 21.7287C63.0779 21.7287 62.7023 22.1041 62.7023 22.5676C62.7023 23.0308 63.0779 23.4064 63.5411 23.4064C67.7301 23.4064 71.1377 19.9985 71.1377 15.8099C71.1381 15.3463 70.7624 14.9706 70.2992 14.9706Z" fill="#6277D7"/>
<path d="M104.608 29.5771V44.7596C104.608 45.5826 105.275 46.25 106.098 46.25H130.152C130.975 46.25 131.642 45.5826 131.642 44.7596V29.5771H104.608Z" fill="#89AEFF"/>
<path d="M107.257 23.3958H128.994C129.89 23.3958 130.617 24.5829 130.617 26.0468V39.0858C130.617 40.5501 129.89 41.7368 128.994 41.7368H107.257C106.361 41.7368 105.634 40.5497 105.634 39.0858V26.0468C105.635 24.5829 106.361 23.3958 107.257 23.3958Z" fill="#D2DCFF"/>
<path d="M130.153 46.25H106.099C105.276 46.25 104.609 45.5826 104.609 44.7596V29.5771L118.126 39.4697L131.643 29.5771V44.7596C131.643 45.5826 130.976 46.25 130.153 46.25Z" fill="#6277D7"/>
<path d="M124.068 29.053H112.183C111.81 29.053 111.507 28.7506 111.507 28.3773C111.507 28.004 111.81 27.7015 112.183 27.7015H124.068C124.441 27.7015 124.744 28.004 124.744 28.3773C124.744 28.7506 124.441 29.053 124.068 29.053Z" fill="#89AEFF"/>
<path d="M121.122 32.0627H115.129C114.756 32.0627 114.454 31.7603 114.454 31.3871C114.454 31.0138 114.756 30.7113 115.129 30.7113H121.122C121.495 30.7113 121.798 31.0138 121.798 31.3871C121.797 31.76 121.495 32.0627 121.122 32.0627Z" fill="#89AEFF"/>
<path d="M32.0302 45.8878C32.0302 41.635 28.2794 38.1895 22.655 38.1895C17.9807 38.1895 16.3743 40.7689 16.3743 40.7689C16.3743 40.7689 11.9561 41.7237 11.9561 47.2139C11.9561 52.3178 11.9561 61.098 11.9561 61.098H19.2157H19.5859H24.9474H30.7757V49.6639C31.2361 49.0986 32.0302 47.8409 32.0302 45.8878ZM23.2998 58.3217C22.9068 58.3217 22.4776 58.2493 22.0299 58.123V61.098H15.6063V53.4444C15.5623 53.3217 15.5192 53.1903 15.4772 53.0521C12.6294 52.7802 12.7474 48.0737 14.4397 48.0737C14.4626 48.0737 14.4852 48.0757 14.5074 48.0788V48.0784C21.621 50.3527 26.405 46.6264 27.9702 44.0375C27.9702 45.8442 29.9697 47.6058 30.6811 47.7666C30.5758 54.2227 25.9569 58.3217 23.2998 58.3217Z" fill="#311643"/>
<path d="M22.0299 58.8225V58.123C22.4776 58.2493 22.9068 58.3217 23.2998 58.3217C25.9569 58.3217 30.5758 54.223 30.6807 47.7661C29.9693 47.6054 27.9698 45.8438 27.9698 44.037C26.4046 46.6264 21.6206 50.3522 14.507 48.078V48.0784C14.4848 48.0752 14.4626 48.0733 14.4393 48.0733C12.747 48.0733 12.629 52.7796 15.4768 53.0516C15.5188 53.1897 15.5619 53.3209 15.6059 53.444V58.5925L10.5749 60.9641V67.1736H27.2933V60.4044L22.0299 58.8225Z" fill="#FCBEB7"/>
<path d="M27.2937 67.1736V60.4044L22.0303 58.8225V58.123C20.5419 57.703 18.85 56.6856 17.6074 55.7363L27.2937 67.1736Z" fill="#F9AFAB"/>
<path d="M18.5994 53.2175C19.5673 53.2175 20.3519 52.4329 20.3519 51.4651C20.3519 50.4972 19.5673 49.7126 18.5994 49.7126C17.6315 49.7126 16.8469 50.4972 16.8469 51.4651C16.8469 52.4329 17.6315 53.2175 18.5994 53.2175Z" fill="#F49795"/>
<path d="M30.4555 50.0099C30.2334 51.1868 29.8609 52.2599 29.3906 53.2148C28.4639 53.1688 27.7268 52.4029 27.7268 51.4647C27.7268 50.4968 28.5114 49.7122 29.4789 49.7122C29.8403 49.7126 30.1764 49.8223 30.4555 50.0099Z" fill="#F49795"/>
<path d="M27.4912 46.1352C26.2118 46.1352 25.1553 47.1078 25.0223 48.3528C24.3267 48.0254 23.7127 48.2028 23.3885 48.3517C23.2547 47.1075 22.199 46.1352 20.9199 46.1352C19.5507 46.1352 18.4367 47.2491 18.4367 48.6184C18.4367 49.9877 19.5507 51.1017 20.9199 51.1017C22.2587 51.1017 23.3525 50.0368 23.4008 48.7094C23.607 48.5907 24.2622 48.2883 25.01 48.7123C25.0595 50.038 26.1532 51.1017 27.4908 51.1017C28.8601 51.1017 29.9741 49.9877 29.9741 48.6184C29.9749 47.2491 28.8605 46.1352 27.4912 46.1352ZM20.9199 50.7771C19.73 50.7771 18.7617 49.8088 18.7617 48.6188C18.7617 47.4284 19.73 46.4602 20.9199 46.4602C22.1103 46.4602 23.0786 47.4284 23.0786 48.6188C23.0786 49.8088 22.1103 50.7771 20.9199 50.7771ZM27.4912 50.7771C26.3013 50.7771 25.333 49.8088 25.333 48.6188C25.333 47.4284 26.3013 46.4602 27.4912 46.4602C28.6816 46.4602 29.6499 47.4284 29.6499 48.6188C29.6499 49.8088 28.6816 50.7771 27.4912 50.7771Z" fill="white"/>
<path d="M27.4928 49.3041C27.2972 49.3041 27.1385 49.1453 27.1385 48.9498V48.2875C27.1385 48.0919 27.2972 47.9332 27.4928 47.9332C27.6883 47.9332 27.8471 48.0919 27.8471 48.2875V48.9498C27.8475 49.1453 27.6887 49.3041 27.4928 49.3041Z" fill="#311643"/>
<path d="M21.028 49.3041C20.8324 49.3041 20.6737 49.1453 20.6737 48.9498V48.2875C20.6737 48.0919 20.8324 47.9332 21.028 47.9332C21.2236 47.9332 21.3823 48.0919 21.3823 48.2875V48.9498C21.3823 49.1453 21.2236 49.3041 21.028 49.3041Z" fill="#311643"/>
<path d="M23.5579 54.4157C22.9253 54.4157 22.4946 54.1778 22.2337 53.9613C21.9048 53.6882 21.7682 53.39 21.7623 53.3774C21.7255 53.2954 21.7619 53.1996 21.8438 53.1624C21.9254 53.1256 22.0216 53.1621 22.0584 53.2432C22.077 53.2832 22.5263 54.2253 23.8314 54.0745C23.9209 54.0642 24.0013 54.128 24.0116 54.2174C24.0219 54.3069 23.9581 54.3873 23.8687 54.3976C23.7598 54.4098 23.6565 54.4157 23.5579 54.4157Z" fill="#311643"/>
<path d="M34.1512 157.504L34.8158 160.267L42.0648 162.543L41.0221 157.504H34.1512Z" fill="#FCBEB7"/>
<path d="M9.72893 157.504L9.92646 160.917L9.47518 161.083L9.17749 162.544L16.419 160.267L16.5999 157.504H9.72893Z" fill="#FCBEB7"/>
<path d="M47.6552 163.616L41.7624 161.083L42.0644 162.543L34.8158 160.267V162.344C34.8158 163.074 35.1978 163.736 35.7983 164.109L36.4218 165.891C36.4756 166.045 36.6209 166.148 36.7844 166.148C36.9966 166.148 37.1684 165.976 37.1684 165.764V164.605L42.1226 166.148H47.1342C47.863 166.148 48.4536 165.558 48.4536 164.829C48.4536 164.301 48.1397 163.825 47.6552 163.616Z" fill="#2F3D6C"/>
<path d="M16.4253 162.324L16.4194 160.247L9.17752 162.545L9.4752 161.084L3.58994 163.634C3.1062 163.844 2.79347 164.321 2.79505 164.849C2.79703 165.577 3.38963 166.167 4.11841 166.164L9.13001 166.15L14.2529 164.537L14.2564 165.751C14.2572 165.963 14.4294 166.135 14.6416 166.134C14.8047 166.133 14.95 166.03 15.0034 165.876L15.6795 163.924C16.1435 163.536 16.4273 162.955 16.4253 162.324Z" fill="#2F3D6C"/>
<path d="M10.8251 88.0228L8.15142 99.3448C7.37949 102.615 7.07507 105.977 7.24806 109.332L9.72932 157.504H16.6003L19.534 107.51L34.1516 157.504H41.0225L28.9246 88.0224H10.8251V88.0228Z" fill="#6277D7"/>
<path d="M19.9165 64.1112C21.1365 64.1112 22.1123 62.9363 22.7702 61.7463H15.8126C16.8739 62.9331 18.3271 64.1112 19.9165 64.1112Z" fill="white"/>
<path d="M32.9343 64.2023C31.8619 62.533 30.231 61.299 28.3328 60.721L23.7219 59.317C23.7219 59.5109 23.3846 60.6352 22.7702 61.7463C22.1123 62.9363 21.1365 64.1112 19.9164 64.1112C18.3271 64.1112 16.8739 62.9331 15.8125 61.7463C14.7358 60.5421 14.0632 59.3292 14.0632 59.3292L9.27293 61.5484C7.31223 62.4569 5.86852 64.2047 5.34717 66.3019L1.81293 80.5141L8.31178 80.5157L9.9067 74.997L10.8251 88.0228H28.9247L30.5691 74.1586L34.8804 78.0364L38.457 72.7976L32.9343 64.2023Z" fill="#FE9ECC"/>
<path d="M59.0203 58.8225L58.7448 58.7766L58.7016 58.6079C58.6205 58.2905 58.345 58.0609 58.018 58.0387L54.154 57.7778L51.4661 56.6849L52.9668 54.812C53.2154 54.5016 53.1806 54.0516 52.8872 53.7836L49.7215 56.2228C49.4108 56.4619 49.1531 56.7632 48.9646 57.1068L48.0945 58.6922L48.0906 58.6871L34.8803 78.0372L36.6953 79.6955C38.1956 81.0663 40.591 80.6209 41.4983 78.802L50.0806 61.5975L53.2083 61.8951C53.9117 61.962 54.6215 61.8912 55.298 61.687L56.9535 61.1865C57.2346 61.1014 57.3814 60.7927 57.2694 60.5211L58.4487 60.2943C58.6688 60.2519 58.8354 60.0706 58.8592 59.8473L58.8794 59.6565H58.9518C59.1834 59.6565 59.3714 59.4689 59.3714 59.2369C59.371 59.0311 59.2226 58.8561 59.0203 58.8225Z" fill="#FCBEB7"/>
<path d="M38.4569 72.798L33.4346 76.7364L34.8803 78.0368L38.4569 72.798Z" fill="#FF78BA"/>
<path d="M20.0949 65.8039C19.0887 65.8039 18.065 65.4975 17.0516 64.8938C16.2472 64.4144 15.4475 63.7474 14.6748 62.9105C13.3633 61.4906 12.5664 60.0406 12.5585 60.0259L12.8249 59.9024C12.8329 59.9167 13.6076 61.3216 14.8957 62.7146C15.6486 63.5293 16.4257 64.1773 17.2051 64.6413C18.171 65.2164 19.1433 65.5078 20.0945 65.5078C20.9935 65.5078 21.8031 65.2074 22.501 64.6152C23.0655 64.1358 23.5603 63.4651 23.9716 62.6219C24.677 61.1751 24.894 59.6886 24.8963 59.674L25.1825 59.7611C25.1738 59.8229 24.9628 61.263 24.2372 62.7514C23.8081 63.6318 23.2883 64.3344 22.6926 64.8403C21.94 65.4797 21.066 65.8039 20.0949 65.8039Z" fill="white"/>
<path d="M30.8805 126.465C32.6969 126.465 34.1694 124.992 34.1694 123.176C34.1694 121.36 32.6969 119.887 30.8805 119.887C29.0642 119.887 27.5917 121.36 27.5917 123.176C27.5917 124.992 29.0642 126.465 30.8805 126.465Z" fill="#4A5EA3"/>
<path d="M13.6495 126.465C15.4659 126.465 16.9383 124.992 16.9383 123.176C16.9383 121.36 15.4659 119.887 13.6495 119.887C11.8332 119.887 10.3607 121.36 10.3607 123.176C10.3607 124.992 11.8332 126.465 13.6495 126.465Z" fill="#4A5EA3"/>
<path d="M32.4889 63.5736C32.1576 63.7921 31.7605 63.9192 31.3338 63.9192C30.1739 63.9192 29.233 62.9791 29.233 61.8188C29.233 61.569 29.2765 61.3295 29.3569 61.1074C30.5825 61.6644 31.6576 62.5099 32.4889 63.5736Z" fill="#FF78BA"/>
<path d="M9.30141 63.0108C9.30141 64.1707 8.36124 65.1116 7.20058 65.1116C6.73465 65.1116 6.30435 64.96 5.95599 64.7031C6.61075 63.4577 7.62455 62.4245 8.87864 61.7468C9.14426 62.0983 9.30141 62.5362 9.30141 63.0108Z" fill="#FF78BA"/>
<path d="M15.9119 91.9748L30.9978 91.4051C31.2693 91.3948 31.4807 91.1664 31.4708 90.8953L30.6637 69.5267C30.6534 69.2551 30.425 69.0437 30.1538 69.0536L15.0679 69.6232C14.7964 69.6335 14.585 69.862 14.5949 70.1332L15.402 91.5017C15.4119 91.7733 15.6403 91.9851 15.9119 91.9748Z" fill="#4A5EA3"/>
<path d="M15.8644 90.8223L30.8738 92.4433C31.1438 92.4722 31.3865 92.2771 31.4158 92.0071L33.7118 70.747C33.7411 70.4771 33.5455 70.2344 33.2755 70.2051L18.2661 68.584C17.9961 68.5547 17.7534 68.7503 17.7241 69.0203L15.4281 90.2804C15.3992 90.5508 15.5944 90.7934 15.8644 90.8223Z" fill="#4A5EA3"/>
<path d="M33.7209 82.326C33.709 82.0402 33.5819 81.771 33.3686 81.5802L33.0867 81.328L33.0737 81.1946C33.0238 80.691 32.6125 80.3003 32.1074 80.2754L30.2832 80.186L31.2444 78.7019C31.3089 78.6025 31.3287 78.4805 31.2994 78.3657C31.2278 78.087 30.9055 77.9588 30.6621 78.1124L25.4672 81.3902L8.31216 80.5157L1.81291 80.5141L1.0299 83.2843C0.418294 85.4477 2.18383 87.5454 4.41966 87.3122L25.4672 85.1199L31.4522 86.0399L31.7186 85.9679C32.1774 85.844 32.4977 85.4295 32.502 84.9545L32.5056 84.5847L32.5159 84.58C32.9082 84.4046 33.1556 84.0096 33.1425 83.5801L33.1358 83.3627L33.3559 83.1719C33.5998 82.9601 33.7344 82.6486 33.7209 82.326Z" fill="#FCBEB7"/>
<path d="M4.95245 85.4735C4.95245 86.2561 4.53957 86.9421 3.91965 87.3261C2.28633 87.2445 1.0069 85.9216 0.913086 84.3449C1.2947 83.7162 1.98587 83.2966 2.77522 83.2966C3.97745 83.2962 4.95245 84.2709 4.95245 85.4735Z" fill="#F9AFAB"/>
<path d="M41.0851 79.4275C40.0345 80.6602 38.1422 80.8776 36.8339 79.8139C36.9515 78.7225 37.8758 77.8726 38.9981 77.8726C39.9846 77.8726 40.8175 78.5285 41.0851 79.4275Z" fill="#F9AFAB"/>
<path d="M16.687 91.9454C16.687 91.9454 30.0884 94.7105 30.0861 94.697C30.0837 94.6836 29.6712 92.3136 29.6712 92.3136L23.78 91.6774L16.687 91.9454Z" fill="#4A5EA3"/>
<path d="M16.3937 69.5729L16.438 80.9297L17.6699 69.525L16.3937 69.5729Z" fill="#2F3D6C"/>
</svg>
